<?xml version="1.0" encoding="utf-8"?>
<!-- Generator: Adobe Illustrator 25.4.1, SVG Export Plug-In . SVG Version: 6.00 Build 0)  -->
<svg version="1.1" id="Layer_1" xmlns="http://www.w3.org/2000/svg" xmlns:xlink="http://www.w3.org/1999/xlink" x="0px" y="0px"
	 viewBox="0 0 523.28 521.55" style="enable-background:new 0 0 523.28 521.55;" xml:space="preserve">
<style type="text/css">
	.st0{stroke:#EE2D49;stroke-width:10;stroke-miterlimit:10;}
	.st1{clip-path:url(#SVGID_00000073703092728389526210000000245208242369323685_);}
	.st2{fill:#FFFFFF;}
	.st3{fill:#CB2026;}
	.st4{fill:#3953A4;}
	.st5{clip-path:url(#SVGID_00000029014073611449611740000014129279952998930092_);}
	.st6{stroke:#EE2D49;stroke-width:4;stroke-miterlimit:10;}
</style>
<path class="st0" d="M305,293.42"/>
<g>
	<defs>
		<path id="SVGID_1_" d="M253.01,453.95v-44.58V349.9v-21.07v-29.57v-17.4v-41.37V174.7v-59.47V35.87v-24.5
			c-72.96,2.59-137.99,36.31-182.22,88.27l42.08,42.08c4.23-5.22,8.75-10.25,13.56-15.06c24.01-24.01,53.28-40.87,85.2-49.51v46.63
			c-19.97,7.25-38.28,18.85-53.76,34.33c-4.83,4.83-9.27,9.94-13.34,15.29l42.6,42.6c3.55-5.72,7.78-11.08,12.67-15.96
			c3.69-3.69,7.65-7,11.83-9.94v50.4v58.78v35.24c-4.18-2.93-8.14-6.25-11.83-9.94c-16.63-16.63-25.79-38.75-25.79-62.27
			c0-9.85,1.61-19.45,4.7-28.51l-44.63-44.63c-12.63,22.02-19.36,47.06-19.36,73.13c0,39.36,15.33,76.36,43.16,104.19
			c15.47,15.47,33.79,27.07,53.76,34.33v46.96c-32.42-8.53-62.15-25.5-86.48-49.84c-36.23-36.23-56.18-84.4-56.18-135.64
			c0-38.37,11.19-75.02,32.03-106.22l-41.78-41.78c-30.34,41.5-48.25,92.66-48.25,148.01c0,135.65,107.56,246.16,242.05,250.93
			L253.01,453.95L253.01,453.95z M204.98,389.24c-15.33-6.9-29.22-16.51-41.27-28.57c-26.28-26.28-40.75-61.21-40.75-98.37
			c0-20.64,4.55-40.96,13.24-59.38l33.18,33.18c-2.39,8.49-3.6,17.28-3.6,26.2c0,25.72,10.02,49.9,28.2,68.09
			c5.42,5.42,11.33,10.09,17.66,14v47.63C209.4,391.16,207.18,390.23,204.98,389.24z M87.48,431.12
			C43.45,385.6,19.2,325.64,19.2,262.3c0-48.65,14.19-95.21,41.12-135.25l30.16,30.16C71,188.65,60.74,224.84,60.74,262.3
			c0,53.44,20.81,103.67,58.59,141.46c17.83,17.83,38.43,31.93,61.23,41.91c10.08,4.41,20.46,7.96,31.08,10.63v43.62
			c-17.09-3.61-33.73-9.05-49.78-16.33C133.92,470.91,108.89,453.26,87.48,431.12z"/>
	</defs>
	<clipPath id="SVGID_00000149378142014817260140000011907153996391505059_">
		<use xlink:href="#SVGID_1_"  style="overflow:visible;"/>
	</clipPath>
	<g style="clip-path:url(#SVGID_00000149378142014817260140000011907153996391505059_);">
		<rect id="_x35_9_2_" x="9.89" y="5.61" class="st2" width="519.35" height="512.92"/>
		<rect id="_x35_8_1_" x="9.89" y="5.61" class="st3" width="519.35" height="39.46"/>
		<rect id="_x35_7_1_" x="9.89" y="84.52" class="st3" width="519.35" height="39.46"/>
		<rect id="_x35_6_1_" x="9.89" y="163.43" class="st3" width="519.35" height="39.46"/>
		<rect id="_x35_5_1_" x="9.89" y="242.34" class="st3" width="519.35" height="39.45"/>
		<rect id="_x35_4_1_" x="9.89" y="321.25" class="st3" width="519.35" height="39.45"/>
		<rect id="_x35_3_1_" x="9.89" y="400.16" class="st3" width="519.35" height="39.46"/>
		<rect id="_x35_2_1_" x="9.89" y="479.07" class="st3" width="519.35" height="39.45"/>
		<rect id="_x35_1_1_" x="9.89" y="5.61" class="st4" width="389.82" height="276.19"/>
		<polygon id="_x35_0_1_" class="st2" points="28.21,28.03 37.49,34.78 33.95,45.69 43.23,38.95 52.52,45.69 48.97,34.78 
			58.26,28.03 46.78,28.03 43.23,17.11 39.69,28.03 		"/>
		<polygon id="_x34_9_1_" class="st2" points="92.84,28.03 102.12,34.78 98.57,45.69 107.86,38.95 117.15,45.69 113.6,34.78 
			122.88,28.03 111.41,28.03 107.86,17.11 104.31,28.03 		"/>
		<polygon id="_x34_8_1_" class="st2" points="157.46,28.03 166.75,34.78 163.2,45.69 172.49,38.95 181.77,45.69 178.23,34.78 
			187.51,28.03 176.04,28.03 172.49,17.11 168.94,28.03 		"/>
		<polygon id="_x34_7_1_" class="st2" points="222.09,28.03 231.38,34.78 227.83,45.69 237.12,38.95 246.4,45.69 242.86,34.78 
			252.14,28.03 240.66,28.03 237.12,17.11 233.57,28.03 		"/>
		<polygon id="_x34_6_1_" class="st2" points="286.72,28.03 296,34.78 292.46,45.69 301.74,38.95 311.03,45.69 307.48,34.78 
			316.77,28.03 305.29,28.03 301.74,17.11 298.2,28.03 		"/>
		<polygon id="_x34_5_1_" class="st2" points="351.35,28.03 360.63,34.78 357.09,45.69 366.37,38.95 375.66,45.69 372.11,34.78 
			381.4,28.03 369.92,28.03 366.37,17.11 362.82,28.03 		"/>
		<polygon id="_x34_4_1_" class="st2" points="60.52,55.73 69.81,62.48 66.26,73.39 75.55,66.65 84.83,73.39 81.29,62.48 
			90.57,55.73 79.09,55.73 75.55,44.81 72,55.73 		"/>
		<polygon id="_x34_3_1_" class="st2" points="125.15,55.73 134.44,62.48 130.89,73.39 140.17,66.65 149.46,73.39 145.91,62.48 
			155.2,55.73 143.72,55.73 140.17,44.81 136.63,55.73 		"/>
		<polygon id="_x34_2_1_" class="st2" points="189.78,55.73 199.06,62.48 195.52,73.39 204.8,66.65 214.09,73.39 210.54,62.48 
			219.83,55.73 208.35,55.73 204.8,44.81 201.26,55.73 		"/>
		<polygon id="_x34_1_1_" class="st2" points="254.4,55.73 263.69,62.48 260.14,73.39 269.43,66.65 278.72,73.39 275.17,62.48 
			284.45,55.73 272.98,55.73 269.43,44.81 265.88,55.73 		"/>
		<polygon id="_x34_0_1_" class="st2" points="319.03,55.73 328.32,62.48 324.77,73.39 334.06,66.65 343.34,73.39 339.8,62.48 
			349.08,55.73 337.6,55.73 334.06,44.81 330.51,55.73 		"/>
		<polygon id="_x33_9_1_" class="st2" points="28.21,83.43 37.49,90.17 33.95,101.09 43.23,94.34 52.52,101.09 48.97,90.17 
			58.26,83.43 46.78,83.43 43.23,72.51 39.69,83.43 		"/>
		<polygon id="_x33_8_1_" class="st2" points="92.84,83.43 102.12,90.17 98.57,101.09 107.86,94.34 117.15,101.09 113.6,90.17 
			122.88,83.43 111.41,83.43 107.86,72.51 104.31,83.43 		"/>
		<polygon id="_x33_7_1_" class="st2" points="157.46,83.43 166.75,90.17 163.2,101.09 172.49,94.34 181.77,101.09 178.23,90.17 
			187.51,83.43 176.04,83.43 172.49,72.51 168.94,83.43 		"/>
		<polygon id="_x33_6_1_" class="st2" points="222.09,83.43 231.38,90.17 227.83,101.09 237.12,94.34 246.4,101.09 242.86,90.17 
			252.14,83.43 240.66,83.43 237.12,72.51 233.57,83.43 		"/>
		<polygon id="_x33_5_1_" class="st2" points="286.72,83.43 296,90.17 292.46,101.09 301.74,94.34 311.03,101.09 307.48,90.17 
			316.77,83.43 305.29,83.43 301.74,72.51 298.2,83.43 		"/>
		<polygon id="_x33_4_1_" class="st2" points="351.35,83.43 360.63,90.17 357.09,101.09 366.37,94.34 375.66,101.09 372.11,90.17 
			381.4,83.43 369.92,83.43 366.37,72.51 362.82,83.43 		"/>
		<polygon id="_x33_3_1_" class="st2" points="61.32,111.22 70.6,117.96 67.06,128.88 76.34,122.13 85.63,128.88 82.08,117.96 
			91.37,111.22 79.89,111.22 76.34,100.3 72.8,111.22 		"/>
		<polygon id="_x33_2_1_" class="st2" points="125.95,111.22 135.23,117.96 131.69,128.88 140.97,122.13 150.26,128.88 
			146.71,117.96 156,111.22 144.52,111.22 140.97,100.3 137.42,111.22 		"/>
		<polygon id="_x33_1_1_" class="st2" points="190.57,111.22 199.86,117.96 196.31,128.88 205.6,122.13 214.89,128.88 
			211.34,117.96 220.62,111.22 209.15,111.22 205.6,100.3 202.05,111.22 		"/>
		<polygon id="_x33_0_1_" class="st2" points="255.2,111.22 264.49,117.96 260.94,128.88 270.23,122.13 279.51,128.88 
			275.97,117.96 285.25,111.22 273.77,111.22 270.23,100.3 266.68,111.22 		"/>
		<polygon id="_x32_9_1_" class="st2" points="319.83,111.22 329.12,117.96 325.57,128.88 334.85,122.13 344.14,128.88 
			340.59,117.96 349.88,111.22 338.4,111.22 334.85,100.3 331.31,111.22 		"/>
		<polygon id="_x32_8_1_" class="st2" points="29.19,138.68 38.47,145.43 34.93,156.34 44.21,149.6 53.5,156.34 49.95,145.43 
			59.24,138.68 47.76,138.68 44.21,127.77 40.67,138.68 		"/>
		<polygon id="_x32_7_1_" class="st2" points="93.82,138.68 103.1,145.43 99.55,156.34 108.84,149.6 118.13,156.34 114.58,145.43 
			123.87,138.68 112.39,138.68 108.84,127.77 105.29,138.68 		"/>
		<polygon id="_x32_6_1_" class="st2" points="158.44,138.68 167.73,145.43 164.18,156.34 173.47,149.6 182.75,156.34 
			179.21,145.43 188.49,138.68 177.02,138.68 173.47,127.77 169.92,138.68 		"/>
		<polygon id="_x32_5_1_" class="st2" points="223.07,138.68 232.36,145.43 228.81,156.34 238.1,149.6 247.38,156.34 243.84,145.43 
			253.12,138.68 241.64,138.68 238.1,127.77 234.55,138.68 		"/>
		<polygon id="_x32_4_1_" class="st2" points="287.7,138.68 296.99,145.43 293.44,156.34 302.72,149.6 312.01,156.34 308.46,145.43 
			317.75,138.68 306.27,138.68 302.72,127.77 299.18,138.68 		"/>
		<polygon id="_x32_3_1_" class="st2" points="352.33,138.68 361.61,145.43 358.07,156.34 367.35,149.6 376.64,156.34 
			373.09,145.43 382.38,138.68 370.9,138.68 367.35,127.77 363.81,138.68 		"/>
		<polygon id="_x32_2_1_" class="st2" points="29.79,193.2 39.08,199.95 35.53,210.86 44.82,204.12 54.1,210.86 50.56,199.95 
			59.84,193.2 48.37,193.2 44.82,182.28 41.27,193.2 		"/>
		<polygon id="_x32_1_1_" class="st2" points="94.42,193.2 103.71,199.95 100.16,210.86 109.45,204.12 118.73,210.86 115.19,199.95 
			124.47,193.2 112.99,193.2 109.45,182.28 105.9,193.2 		"/>
		<polygon id="_x32_0_1_" class="st2" points="159.05,193.2 168.34,199.95 164.79,210.86 174.07,204.12 183.36,210.86 
			179.81,199.95 189.1,193.2 177.62,193.2 174.07,182.28 170.53,193.2 		"/>
		<polygon id="_x31_9_1_" class="st2" points="223.68,193.2 232.96,199.95 229.42,210.86 238.7,204.12 247.99,210.86 244.44,199.95 
			253.73,193.2 242.25,193.2 238.7,182.28 235.16,193.2 		"/>
		<polygon id="_x31_8_1_" class="st2" points="288.31,193.2 297.59,199.95 294.04,210.86 303.33,204.12 312.62,210.86 
			309.07,199.95 318.35,193.2 306.88,193.2 303.33,182.28 299.78,193.2 		"/>
		<polygon id="_x31_7_1_" class="st2" points="352.93,193.2 362.22,199.95 358.67,210.86 367.96,204.12 377.24,210.86 373.7,199.95 
			382.98,193.2 371.5,193.2 367.96,182.28 364.41,193.2 		"/>
		<polygon id="_x31_6_1_" class="st2" points="29,248.36 38.29,255.11 34.74,266.02 44.03,259.28 53.32,266.02 49.77,255.11 
			59.05,248.36 47.58,248.36 44.03,237.44 40.48,248.36 		"/>
		<polygon id="_x31_5_1_" class="st2" points="93.63,248.36 102.92,255.11 99.37,266.02 108.66,259.28 117.94,266.02 114.4,255.11 
			123.68,248.36 112.2,248.36 108.66,237.44 105.11,248.36 		"/>
		<polygon id="_x31_4_1_" class="st2" points="158.26,248.36 167.55,255.11 164,266.02 173.29,259.28 182.57,266.02 179.02,255.11 
			188.31,248.36 176.83,248.36 173.28,237.44 169.74,248.36 		"/>
		<polygon id="_x31_3_1_" class="st2" points="222.89,248.36 232.17,255.11 228.63,266.02 237.91,259.28 247.2,266.02 
			243.65,255.11 252.94,248.36 241.46,248.36 237.91,237.44 234.37,248.36 		"/>
		<polygon id="_x31_2_1_" class="st2" points="287.52,248.36 296.8,255.11 293.25,266.02 302.54,259.28 311.83,266.02 
			308.28,255.11 317.57,248.36 306.09,248.36 302.54,237.44 298.99,248.36 		"/>
		<polygon id="_x31_1_1_" class="st2" points="352.14,248.36 361.43,255.11 357.88,266.02 367.17,259.28 376.45,266.02 
			372.91,255.11 382.19,248.36 370.72,248.36 367.17,237.44 363.62,248.36 		"/>
		<polygon id="_x31_0_1_" class="st2" points="61.51,165.67 70.8,172.41 67.25,183.33 76.54,176.58 85.82,183.33 82.27,172.41 
			91.56,165.67 80.08,165.67 76.54,154.75 72.99,165.67 		"/>
		<polygon id="_x39__1_" class="st2" points="126.14,165.67 135.42,172.41 131.88,183.33 141.16,176.58 150.45,183.33 146.9,172.41 
			156.19,165.67 144.71,165.67 141.16,154.75 137.62,165.67 		"/>
		<polygon id="_x38__1_" class="st2" points="190.77,165.67 200.05,172.41 196.51,183.33 205.79,176.58 215.08,183.33 
			211.53,172.41 220.82,165.67 209.34,165.67 205.79,154.75 202.24,165.67 		"/>
		<polygon id="_x37__1_" class="st2" points="255.39,165.67 264.68,172.41 261.13,183.33 270.42,176.58 279.7,183.33 276.16,172.41 
			285.44,165.67 273.97,165.67 270.42,154.75 266.87,165.67 		"/>
		<polygon id="_x36__1_" class="st2" points="320.02,165.67 329.31,172.41 325.76,183.33 335.05,176.58 344.33,183.33 
			340.79,172.41 350.07,165.67 338.59,165.67 335.05,154.75 331.5,165.67 		"/>
		<polygon id="_x35__1_" class="st2" points="61.32,220.74 70.6,227.49 67.06,238.4 76.34,231.66 85.63,238.4 82.08,227.49 
			91.37,220.74 79.89,220.74 76.34,209.82 72.8,220.74 		"/>
		<polygon id="_x34__1_" class="st2" points="125.95,220.74 135.23,227.49 131.69,238.4 140.97,231.66 150.26,238.4 146.71,227.49 
			156,220.74 144.52,220.74 140.97,209.82 137.43,220.74 		"/>
		<polygon id="_x33__1_" class="st2" points="190.58,220.74 199.86,227.49 196.31,238.4 205.6,231.66 214.89,238.4 211.34,227.49 
			220.62,220.74 209.15,220.74 205.6,209.82 202.05,220.74 		"/>
		<polygon id="_x32__1_" class="st2" points="255.2,220.74 264.49,227.49 260.94,238.4 270.23,231.66 279.51,238.4 275.97,227.49 
			285.25,220.74 273.77,220.74 270.23,209.82 266.68,220.74 		"/>
		<polygon id="_x31__1_" class="st2" points="319.83,220.74 329.12,227.49 325.57,238.4 334.86,231.66 344.14,238.4 340.59,227.49 
			349.88,220.74 338.4,220.74 334.86,209.82 331.31,220.74 		"/>
	</g>
</g>
<g>
	<defs>
		<path id="SVGID_00000068660058345097622300000013504214199648244105_" d="M464.68,113.95l-42.54,42.54
			c20.66,31.11,31.75,67.6,31.75,105.8c0,51.24-19.95,99.41-56.18,135.64c-24.01,24.01-53.28,40.87-85.2,49.51v-46.62
			c19.97-7.25,38.28-18.85,53.76-34.33c27.83-27.83,43.16-64.84,43.16-104.19c0-26.22-6.81-51.39-19.58-73.51l-44.56,44.56
			c3.19,9.19,4.85,18.94,4.85,28.95c0,23.52-9.16,45.64-25.79,62.27c-3.69,3.69-7.65,7-11.83,9.94V190.1
			c4.18,2.93,8.15,6.24,11.83,9.93c4.99,4.99,9.29,10.47,12.89,16.33l42.63-42.63c-4.13-5.47-8.66-10.7-13.59-15.63
			c-15.47-15.47-33.79-27.06-53.76-34.31V77.15c31.92,8.64,61.19,25.49,85.2,49.51c4.92,4.92,9.52,10.06,13.83,15.39l42.09-42.09
			c-44.24-52.14-109.39-86-182.5-88.59v24.5v79.36v59.47v73.9v33.86v67.44v59.47v44.47v51.52v7.87
			c134.48-4.77,242.05-115.28,242.05-250.93C513.19,206.8,495.17,155.51,464.68,113.95z M330.17,330.39
			c18.19-18.19,28.2-42.37,28.2-68.09c0-9.09-1.25-18.03-3.73-26.66l33.12-33.12c8.81,18.53,13.43,38.98,13.43,59.78
			c0,37.16-14.47,72.1-40.75,98.37c-12.06,12.06-25.94,21.67-41.27,28.57c-2.2,0.99-4.42,1.92-6.66,2.79v-47.63
			C318.83,340.48,324.75,335.81,330.17,330.39z M436.68,431.12c-21.42,22.14-46.44,39.8-74.38,52.47
			c-16.05,7.28-32.69,12.73-49.78,16.33v-43.96c34.3-8.88,65.67-26.84,91.02-52.2c37.79-37.79,58.59-88.02,58.59-141.46
			c0-37.28-10.17-73.32-29.49-104.66l30.94-30.94c27.1,40.13,41.37,86.8,41.37,135.6C504.95,325.64,480.7,385.6,436.68,431.12z"/>
	</defs>
	<clipPath id="SVGID_00000044156710580503158970000009120325660185729952_">
		<use xlink:href="#SVGID_00000068660058345097622300000013504214199648244105_"  style="overflow:visible;"/>
	</clipPath>
	<g style="clip-path:url(#SVGID_00000044156710580503158970000009120325660185729952_);">
		<rect id="_x35_9_4_" x="9.89" y="5.61" class="st2" width="519.35" height="512.92"/>
		<rect id="_x35_8_3_" x="9.89" y="5.61" class="st3" width="519.35" height="39.46"/>
		<rect id="_x35_7_3_" x="9.89" y="84.52" class="st3" width="519.35" height="39.46"/>
		<rect id="_x35_6_3_" x="9.89" y="163.43" class="st3" width="519.35" height="39.46"/>
		<rect id="_x35_5_3_" x="9.89" y="242.34" class="st3" width="519.35" height="39.45"/>
		<rect id="_x35_4_3_" x="9.89" y="321.25" class="st3" width="519.35" height="39.45"/>
		<rect id="_x35_3_3_" x="9.89" y="400.16" class="st3" width="519.35" height="39.46"/>
		<rect id="_x35_2_3_" x="9.89" y="479.07" class="st3" width="519.35" height="39.45"/>
		<rect id="_x35_1_3_" x="9.89" y="5.61" class="st4" width="389.82" height="276.19"/>
		<polygon id="_x35_0_3_" class="st2" points="28.21,28.03 37.49,34.78 33.95,45.69 43.23,38.95 52.52,45.69 48.97,34.78 
			58.26,28.03 46.78,28.03 43.23,17.11 39.69,28.03 		"/>
		<polygon id="_x34_9_3_" class="st2" points="92.84,28.03 102.12,34.78 98.57,45.69 107.86,38.95 117.15,45.69 113.6,34.78 
			122.88,28.03 111.41,28.03 107.86,17.11 104.31,28.03 		"/>
		<polygon id="_x34_8_3_" class="st2" points="157.46,28.03 166.75,34.78 163.2,45.69 172.49,38.95 181.77,45.69 178.23,34.78 
			187.51,28.03 176.04,28.03 172.49,17.11 168.94,28.03 		"/>
		<polygon id="_x34_7_3_" class="st2" points="222.09,28.03 231.38,34.78 227.83,45.69 237.12,38.95 246.4,45.69 242.86,34.78 
			252.14,28.03 240.66,28.03 237.12,17.11 233.57,28.03 		"/>
		<polygon id="_x34_6_3_" class="st2" points="286.72,28.03 296,34.78 292.46,45.69 301.74,38.95 311.03,45.69 307.48,34.78 
			316.77,28.03 305.29,28.03 301.74,17.11 298.2,28.03 		"/>
		<polygon id="_x34_5_3_" class="st2" points="351.35,28.03 360.63,34.78 357.09,45.69 366.37,38.95 375.66,45.69 372.11,34.78 
			381.4,28.03 369.92,28.03 366.37,17.11 362.82,28.03 		"/>
		<polygon id="_x34_4_3_" class="st2" points="60.52,55.73 69.81,62.48 66.26,73.39 75.55,66.65 84.83,73.39 81.29,62.48 
			90.57,55.73 79.09,55.73 75.55,44.81 72,55.73 		"/>
		<polygon id="_x34_3_3_" class="st2" points="125.15,55.73 134.44,62.48 130.89,73.39 140.17,66.65 149.46,73.39 145.91,62.48 
			155.2,55.73 143.72,55.73 140.17,44.81 136.63,55.73 		"/>
		<polygon id="_x34_2_3_" class="st2" points="189.78,55.73 199.06,62.48 195.52,73.39 204.8,66.65 214.09,73.39 210.54,62.48 
			219.83,55.73 208.35,55.73 204.8,44.81 201.26,55.73 		"/>
		<polygon id="_x34_1_3_" class="st2" points="254.4,55.73 263.69,62.48 260.14,73.39 269.43,66.65 278.72,73.39 275.17,62.48 
			284.45,55.73 272.98,55.73 269.43,44.81 265.88,55.73 		"/>
		<polygon id="_x34_0_3_" class="st2" points="319.03,55.73 328.32,62.48 324.77,73.39 334.06,66.65 343.34,73.39 339.8,62.48 
			349.08,55.73 337.6,55.73 334.06,44.81 330.51,55.73 		"/>
		<polygon id="_x33_9_3_" class="st2" points="28.21,83.43 37.49,90.17 33.95,101.09 43.23,94.34 52.52,101.09 48.97,90.17 
			58.26,83.43 46.78,83.43 43.23,72.51 39.69,83.43 		"/>
		<polygon id="_x33_8_3_" class="st2" points="92.84,83.43 102.12,90.17 98.57,101.09 107.86,94.34 117.15,101.09 113.6,90.17 
			122.88,83.43 111.41,83.43 107.86,72.51 104.31,83.43 		"/>
		<polygon id="_x33_7_3_" class="st2" points="157.46,83.43 166.75,90.17 163.2,101.09 172.49,94.34 181.77,101.09 178.23,90.17 
			187.51,83.43 176.04,83.43 172.49,72.51 168.94,83.43 		"/>
		<polygon id="_x33_6_3_" class="st2" points="222.09,83.43 231.38,90.17 227.83,101.09 237.12,94.34 246.4,101.09 242.86,90.17 
			252.14,83.43 240.66,83.43 237.12,72.51 233.57,83.43 		"/>
		<polygon id="_x33_5_3_" class="st2" points="286.72,83.43 296,90.17 292.46,101.09 301.74,94.34 311.03,101.09 307.48,90.17 
			316.77,83.43 305.29,83.43 301.74,72.51 298.2,83.43 		"/>
		<polygon id="_x33_4_3_" class="st2" points="351.35,83.43 360.63,90.17 357.09,101.09 366.37,94.34 375.66,101.09 372.11,90.17 
			381.4,83.43 369.92,83.43 366.37,72.51 362.82,83.43 		"/>
		<polygon id="_x33_3_3_" class="st2" points="61.32,111.22 70.6,117.96 67.06,128.88 76.34,122.13 85.63,128.88 82.08,117.96 
			91.37,111.22 79.89,111.22 76.34,100.3 72.8,111.22 		"/>
		<polygon id="_x33_2_3_" class="st2" points="125.95,111.22 135.23,117.96 131.69,128.88 140.97,122.13 150.26,128.88 
			146.71,117.96 156,111.22 144.52,111.22 140.97,100.3 137.42,111.22 		"/>
		<polygon id="_x33_1_3_" class="st2" points="190.57,111.22 199.86,117.96 196.31,128.88 205.6,122.13 214.89,128.88 
			211.34,117.96 220.62,111.22 209.15,111.22 205.6,100.3 202.05,111.22 		"/>
		<polygon id="_x33_0_3_" class="st2" points="255.2,111.22 264.49,117.96 260.94,128.88 270.23,122.13 279.51,128.88 
			275.97,117.96 285.25,111.22 273.77,111.22 270.23,100.3 266.68,111.22 		"/>
		<polygon id="_x32_9_3_" class="st2" points="319.83,111.22 329.12,117.96 325.57,128.88 334.85,122.13 344.14,128.88 
			340.59,117.96 349.88,111.22 338.4,111.22 334.85,100.3 331.31,111.22 		"/>
		<polygon id="_x32_8_3_" class="st2" points="29.19,138.68 38.47,145.43 34.93,156.34 44.21,149.6 53.5,156.34 49.95,145.43 
			59.24,138.68 47.76,138.68 44.21,127.77 40.67,138.68 		"/>
		<polygon id="_x32_7_3_" class="st2" points="93.82,138.68 103.1,145.43 99.55,156.34 108.84,149.6 118.13,156.34 114.58,145.43 
			123.87,138.68 112.39,138.68 108.84,127.77 105.29,138.68 		"/>
		<polygon id="_x32_6_3_" class="st2" points="158.44,138.68 167.73,145.43 164.18,156.34 173.47,149.6 182.75,156.34 
			179.21,145.43 188.49,138.68 177.02,138.68 173.47,127.77 169.92,138.68 		"/>
		<polygon id="_x32_5_3_" class="st2" points="223.07,138.68 232.36,145.43 228.81,156.34 238.1,149.6 247.38,156.34 243.84,145.43 
			253.12,138.68 241.64,138.68 238.1,127.77 234.55,138.68 		"/>
		<polygon id="_x32_4_3_" class="st2" points="287.7,138.68 296.99,145.43 293.44,156.34 302.72,149.6 312.01,156.34 308.46,145.43 
			317.75,138.68 306.27,138.68 302.72,127.77 299.18,138.68 		"/>
		<polygon id="_x32_3_3_" class="st2" points="352.33,138.68 361.61,145.43 358.07,156.34 367.35,149.6 376.64,156.34 
			373.09,145.43 382.38,138.68 370.9,138.68 367.35,127.77 363.81,138.68 		"/>
		<polygon id="_x32_2_3_" class="st2" points="29.79,193.2 39.08,199.95 35.53,210.86 44.82,204.12 54.1,210.86 50.56,199.95 
			59.84,193.2 48.37,193.2 44.82,182.28 41.27,193.2 		"/>
		<polygon id="_x32_1_3_" class="st2" points="94.42,193.2 103.71,199.95 100.16,210.86 109.45,204.12 118.73,210.86 115.19,199.95 
			124.47,193.2 112.99,193.2 109.45,182.28 105.9,193.2 		"/>
		<polygon id="_x32_0_3_" class="st2" points="159.05,193.2 168.34,199.95 164.79,210.86 174.07,204.12 183.36,210.86 
			179.81,199.95 189.1,193.2 177.62,193.2 174.07,182.28 170.53,193.2 		"/>
		<polygon id="_x31_9_3_" class="st2" points="223.68,193.2 232.96,199.95 229.42,210.86 238.7,204.12 247.99,210.86 244.44,199.95 
			253.73,193.2 242.25,193.2 238.7,182.28 235.16,193.2 		"/>
		<polygon id="_x31_8_3_" class="st2" points="288.31,193.2 297.59,199.95 294.04,210.86 303.33,204.12 312.62,210.86 
			309.07,199.95 318.35,193.2 306.88,193.2 303.33,182.28 299.78,193.2 		"/>
		<polygon id="_x31_7_3_" class="st2" points="352.93,193.2 362.22,199.95 358.67,210.86 367.96,204.12 377.24,210.86 373.7,199.95 
			382.98,193.2 371.5,193.2 367.96,182.28 364.41,193.2 		"/>
		<polygon id="_x31_6_3_" class="st2" points="29,248.36 38.29,255.11 34.74,266.02 44.03,259.28 53.32,266.02 49.77,255.11 
			59.05,248.36 47.58,248.36 44.03,237.44 40.48,248.36 		"/>
		<polygon id="_x31_5_3_" class="st2" points="93.63,248.36 102.92,255.11 99.37,266.02 108.66,259.28 117.94,266.02 114.4,255.11 
			123.68,248.36 112.2,248.36 108.66,237.44 105.11,248.36 		"/>
		<polygon id="_x31_4_3_" class="st2" points="158.26,248.36 167.55,255.11 164,266.02 173.29,259.28 182.57,266.02 179.02,255.11 
			188.31,248.36 176.83,248.36 173.28,237.44 169.74,248.36 		"/>
		<polygon id="_x31_3_3_" class="st2" points="222.89,248.36 232.17,255.11 228.63,266.02 237.91,259.28 247.2,266.02 
			243.65,255.11 252.94,248.36 241.46,248.36 237.91,237.44 234.37,248.36 		"/>
		<polygon id="_x31_2_3_" class="st2" points="287.52,248.36 296.8,255.11 293.25,266.02 302.54,259.28 311.83,266.02 
			308.28,255.11 317.57,248.36 306.09,248.36 302.54,237.44 298.99,248.36 		"/>
		<polygon id="_x31_1_3_" class="st2" points="352.14,248.36 361.43,255.11 357.88,266.02 367.17,259.28 376.45,266.02 
			372.91,255.11 382.19,248.36 370.72,248.36 367.17,237.44 363.62,248.36 		"/>
		<polygon id="_x31_0_3_" class="st2" points="61.51,165.67 70.8,172.41 67.25,183.33 76.54,176.58 85.82,183.33 82.27,172.41 
			91.56,165.67 80.08,165.67 76.54,154.75 72.99,165.67 		"/>
		<polygon id="_x39__3_" class="st2" points="126.14,165.67 135.42,172.41 131.88,183.33 141.16,176.58 150.45,183.33 146.9,172.41 
			156.19,165.67 144.71,165.67 141.16,154.75 137.62,165.67 		"/>
		<polygon id="_x38__3_" class="st2" points="190.77,165.67 200.05,172.41 196.51,183.33 205.79,176.58 215.08,183.33 
			211.53,172.41 220.82,165.67 209.34,165.67 205.79,154.75 202.24,165.67 		"/>
		<polygon id="_x37__3_" class="st2" points="255.39,165.67 264.68,172.41 261.13,183.33 270.42,176.58 279.7,183.33 276.16,172.41 
			285.44,165.67 273.97,165.67 270.42,154.75 266.87,165.67 		"/>
		<polygon id="_x36__3_" class="st2" points="320.02,165.67 329.31,172.41 325.76,183.33 335.05,176.58 344.33,183.33 
			340.79,172.41 350.07,165.67 338.59,165.67 335.05,154.75 331.5,165.67 		"/>
		<polygon id="_x35__3_" class="st2" points="61.32,220.74 70.6,227.49 67.06,238.4 76.34,231.66 85.63,238.4 82.08,227.49 
			91.37,220.74 79.89,220.74 76.34,209.82 72.8,220.74 		"/>
		<polygon id="_x34__3_" class="st2" points="125.95,220.74 135.23,227.49 131.69,238.4 140.97,231.66 150.26,238.4 146.71,227.49 
			156,220.74 144.52,220.74 140.97,209.82 137.43,220.74 		"/>
		<polygon id="_x33__3_" class="st2" points="190.58,220.74 199.86,227.49 196.31,238.4 205.6,231.66 214.89,238.4 211.34,227.49 
			220.62,220.74 209.15,220.74 205.6,209.82 202.05,220.74 		"/>
		<polygon id="_x32__3_" class="st2" points="255.2,220.74 264.49,227.49 260.94,238.4 270.23,231.66 279.51,238.4 275.97,227.49 
			285.25,220.74 273.77,220.74 270.23,209.82 266.68,220.74 		"/>
		<polygon id="_x31__3_" class="st2" points="319.83,220.74 329.12,227.49 325.57,238.4 334.86,231.66 344.14,238.4 340.59,227.49 
			349.88,220.74 338.4,220.74 334.86,209.82 331.31,220.74 		"/>
	</g>
</g>
<g>
	<path class="st2" d="M42.02,309.35l-10.33,2.4l-1.19-5.13l24.5-5.7l4.06,17.45l-4.28,1l-2.87-12.32l-5.57,1.3l2.51,10.77l-4.32,1
		L42.02,309.35z"/>
	<path class="st2" d="M67.62,342.55l1.96,5.01l-15.62,6.13c-2.85,1.12-5.32,1.12-7.42,0.02c-2.1-1.1-3.75-3.19-4.96-6.27
		c-1.12-2.84-1.32-5.36-0.6-7.56c0.71-2.19,2.48-3.84,5.3-4.95l15.9-6.24l1.95,4.97l-15.45,6.06c-1.46,0.57-2.47,1.39-3.03,2.45
		c-0.56,1.06-0.58,2.26-0.05,3.6c1.23,3.13,3.36,4.1,6.39,2.91L67.62,342.55z"/>
	<path class="st2" d="M52.8,370.4l21.81-12.53l9.21,16.03l-3.81,2.19l-6.66-11.59l-4.66,2.68l6.13,10.67l-3.84,2.21l-6.13-10.67
		l-5.62,3.23l6.96,12.12l-3.88,2.23L52.8,370.4z"/>
	<path class="st2" d="M93.04,399.01c0.93-0.9,1.4-1.86,1.4-2.88c0-1.03-0.5-2.16-1.48-3.41c-0.92-1.17-1.81-1.9-2.68-2.18
		c-0.87-0.28-1.68-0.13-2.43,0.46c-0.64,0.5-0.96,1.13-0.97,1.89c-0.01,0.76,0.28,1.81,0.88,3.14c0.61,1.35,1.18,2.64,1.72,3.88
		c0.54,1.23,0.92,2.35,1.16,3.35c0.14,0.59,0.24,1.18,0.27,1.76c0.04,0.58-0.02,1.16-0.18,1.73c-0.16,0.58-0.43,1.14-0.83,1.71
		c-0.39,0.56-0.94,1.12-1.63,1.67c-1.09,0.86-2.18,1.4-3.27,1.63c-1.09,0.23-2.17,0.19-3.24-0.11c-1.07-0.3-2.11-0.83-3.11-1.6
		c-1-0.77-1.96-1.73-2.86-2.88c-0.97-1.23-1.71-2.46-2.24-3.68c-0.53-1.22-0.8-2.42-0.82-3.59c-0.02-1.17,0.22-2.29,0.71-3.35
		c0.5-1.06,1.29-2.04,2.39-2.94l3.14,3.99c-0.98,0.83-1.46,1.88-1.43,3.12c0.03,1.24,0.57,2.53,1.61,3.86
		c0.97,1.23,1.95,1.99,2.96,2.27c1.01,0.28,1.96,0.07,2.85-0.63c0.3-0.23,0.53-0.49,0.7-0.77c0.17-0.28,0.27-0.61,0.3-1
		c0.03-0.39-0.03-0.85-0.17-1.38c-0.14-0.53-0.39-1.16-0.73-1.88c-0.69-1.45-1.26-2.68-1.72-3.69c-0.46-1.01-0.8-1.98-1.02-2.93
		c-0.37-1.45-0.39-2.75-0.07-3.92c0.32-1.17,1.11-2.24,2.36-3.22c0.89-0.7,1.83-1.2,2.81-1.48c0.98-0.29,1.97-0.34,2.99-0.15
		c1.01,0.18,2.02,0.61,3.03,1.28c1.01,0.67,1.99,1.61,2.94,2.82c0.98,1.25,1.7,2.49,2.14,3.71c0.45,1.22,0.64,2.39,0.59,3.51
		c-0.05,1.12-0.33,2.17-0.84,3.16c-0.51,0.99-1.22,1.88-2.14,2.67L93.04,399.01z"/>
	<path class="st2" d="M92.43,425.12l17.44-18.13l3.79,3.65L99.4,425.47l8.98,8.64l-3.18,3.3L92.43,425.12z"/>
	<path class="st2" d="M116.21,446.65l14.8-20.34l14.95,10.87l-2.58,3.55l-10.81-7.87l-3.16,4.35l9.96,7.24l-2.61,3.58l-9.95-7.24
		l-3.81,5.24l11.3,8.22l-2.63,3.61L116.21,446.65z"/>
	<path class="st2" d="M143.51,465.05l12.42-21.87l4.58,2.6l-12.42,21.87L143.51,465.05z"/>
	<path class="st2" d="M175.46,480.59l-3.37-19.74l-6.55,15.57l-4.5-1.89l9.75-23.19l5.13,2.16l2.95,18.79l6.27-14.91l4.54,1.91
		l-9.75,23.19L175.46,480.59z"/>
</g>
<path class="st6" d="M318.68,477.71"/>
<g>
	<path class="st2" d="M344.25,470.68l4.08,9.79l-4.86,2.03l-9.68-23.22l16.54-6.89l1.69,4.06l-11.68,4.87l2.2,5.28l10.21-4.26
		l1.71,4.09L344.25,470.68z"/>
	<path class="st2" d="M372.44,469.19l-12.19-22l4.61-2.55l12.19,22L372.44,469.19z"/>
	<path class="st2" d="M401.34,450.79l-3.77-5.27c-0.71-0.99-1.44-1.53-2.19-1.62c-0.75-0.1-1.75,0.3-2.98,1.18l-4.56,3.26l5.73,8.01
		l-4.16,2.98l-14.64-20.45l10.38-7.43c0.94-0.68,1.91-1.14,2.89-1.4c0.98-0.25,1.94-0.32,2.87-0.19c0.93,0.13,1.8,0.45,2.62,0.96
		c0.82,0.52,1.53,1.2,2.13,2.04c0.79,1.11,1.23,2.28,1.32,3.5c0.09,1.23-0.24,2.37-0.97,3.42c1.11-0.36,2.07-0.38,2.87-0.05
		c0.81,0.32,1.64,1.08,2.49,2.27l4.15,5.79L401.34,450.79z M381.47,439.44l3.9,5.45l5.36-3.84c1.15-0.82,1.78-1.66,1.88-2.51
		c0.11-0.85-0.12-1.67-0.68-2.45c-0.57-0.8-1.27-1.29-2.1-1.47c-0.83-0.18-1.78,0.11-2.85,0.87L381.47,439.44z"/>
	<path class="st2" d="M416.63,438.53l-17.36-18.2l13.38-12.76l3.03,3.18l-9.68,9.23l3.71,3.89l8.91-8.5l3.06,3.21l-8.91,8.5
		l4.47,4.69l10.11-9.65l3.08,3.24L416.63,438.53z"/>
	<path class="st2" d="M449.97,402.22l-5.06-1.96l-5.74,7.29l2.98,4.61l-3.45,4.37l-14.2-22.62l3.77-4.79l25.24,8.6L449.97,402.22z
		 M430.78,395.05l-0.02,0.03l5.86,8.72l3.96-5.03L430.78,395.05z"/>
	<path class="st2" d="M467.96,374.1l-5.63-3.21c-1.05-0.6-1.94-0.79-2.67-0.56c-0.72,0.23-1.46,1-2.21,2.31l-2.78,4.87l8.55,4.88
		l-2.53,4.44l-21.85-12.46l6.32-11.09c0.57-1.01,1.26-1.83,2.04-2.48c0.79-0.64,1.63-1.1,2.53-1.37c0.9-0.27,1.83-0.35,2.79-0.22
		c0.96,0.13,1.89,0.45,2.79,0.96c1.18,0.68,2.07,1.55,2.66,2.63s0.77,2.25,0.55,3.52c0.86-0.79,1.72-1.21,2.59-1.25
		c0.87-0.04,1.94,0.3,3.21,1.02l6.19,3.53L467.96,374.1z M445.16,372.09l5.82,3.32l3.27-5.73c0.7-1.23,0.92-2.25,0.66-3.07
		c-0.26-0.82-0.81-1.46-1.64-1.94c-0.86-0.49-1.7-0.64-2.53-0.46c-0.83,0.18-1.57,0.84-2.22,1.98L445.16,372.09z"/>
	<path class="st2" d="M483.6,338.83l-16.11-6.13l14.44,10.52l-1.86,4.89l-17.69-1.75l16.04,6.1l-1.74,4.57l-23.51-8.95l2.75-7.22
		l18.86,2.31l-15.62-10.81l2.69-7.08l23.51,8.95L483.6,338.83z"/>
	<path class="st2" d="M474.74,303.27c-1.29-0.14-2.32,0.11-3.11,0.77c-0.79,0.66-1.35,1.77-1.68,3.32c-0.31,1.46-0.3,2.61,0.04,3.46
		c0.34,0.85,0.97,1.37,1.91,1.57c0.79,0.17,1.48,0.01,2.07-0.47c0.59-0.48,1.21-1.37,1.85-2.68c0.65-1.33,1.27-2.6,1.88-3.8
		c0.6-1.2,1.22-2.21,1.83-3.04c0.36-0.49,0.76-0.94,1.18-1.34c0.42-0.4,0.9-0.72,1.45-0.97c0.54-0.25,1.16-0.4,1.84-0.46
		c0.68-0.06,1.46,0,2.32,0.19c1.36,0.29,2.47,0.78,3.35,1.47c0.87,0.69,1.54,1.54,1.99,2.56c0.46,1.01,0.71,2.15,0.76,3.42
		c0.05,1.26-0.07,2.61-0.38,4.04c-0.33,1.53-0.79,2.89-1.39,4.08c-0.6,1.19-1.35,2.17-2.23,2.93c-0.89,0.77-1.9,1.3-3.03,1.6
		c-1.14,0.3-2.4,0.31-3.79,0.04l1.06-4.96c1.27,0.22,2.37-0.08,3.31-0.9c0.94-0.82,1.58-2.06,1.94-3.71
		c0.33-1.53,0.28-2.77-0.15-3.73c-0.43-0.96-1.2-1.55-2.31-1.79c-0.37-0.08-0.72-0.09-1.04-0.05c-0.32,0.05-0.64,0.19-0.96,0.41
		c-0.32,0.23-0.64,0.57-0.95,1.02c-0.32,0.45-0.64,1.04-0.98,1.77c-0.67,1.46-1.25,2.68-1.73,3.68c-0.48,0.99-1.02,1.88-1.6,2.66
		c-0.88,1.21-1.87,2.06-2.97,2.56c-1.1,0.5-2.43,0.58-3.99,0.25c-1.11-0.24-2.09-0.64-2.94-1.21c-0.85-0.57-1.52-1.3-2.03-2.2
		s-0.82-1.95-0.95-3.15c-0.13-1.2-0.03-2.56,0.29-4.06c0.33-1.56,0.83-2.9,1.48-4.02c0.65-1.13,1.43-2.02,2.32-2.7
		c0.89-0.67,1.88-1.13,2.97-1.38c1.09-0.25,2.23-0.27,3.42-0.06L474.74,303.27z"/>
</g>
<g>
	<path class="st2" d="M253.01,11.2v24.5v79.36v59.47v65.79v41.37v17.4v29.57v21.07v59.47v44.58h0v59.28
		C118.53,508.29,10.96,397.78,10.96,262.14c0-55.35,17.91-106.51,48.25-148.01L101,155.91c-20.84,31.2-32.03,67.85-32.03,106.22
		c0,51.24,19.95,99.41,56.18,135.64c24.34,24.34,54.06,41.31,86.48,49.84v-46.96c-19.97-7.26-38.28-18.85-53.76-34.33
		c-27.83-27.83-43.16-64.83-43.16-104.19c0-26.07,6.73-51.11,19.36-73.13l44.63,44.63c-3.09,9.06-4.7,18.66-4.7,28.51
		c0,23.52,9.16,45.64,25.79,62.27c3.69,3.69,7.65,7,11.83,9.94V299.1v-58.78v-50.4c-4.18,2.93-8.14,6.25-11.83,9.94
		c-4.88,4.88-9.11,10.24-12.67,15.96l-42.6-42.6c4.06-5.35,8.51-10.46,13.34-15.29c15.47-15.47,33.79-27.07,53.76-34.33V76.99
		c-31.92,8.64-61.19,25.5-85.2,49.51c-4.82,4.82-9.33,9.85-13.56,15.06L70.79,99.48C115.02,47.51,180.05,13.79,253.01,11.2
		 M211.64,499.75v-43.62c-10.62-2.67-21-6.22-31.08-10.63c-22.8-9.98-43.4-24.08-61.23-41.91c-37.79-37.79-58.59-88.02-58.59-141.46
		c0-37.46,10.26-73.65,29.75-105.09l-30.16-30.16c-26.94,40.04-41.12,86.6-41.12,135.25c0,63.35,24.25,123.3,68.28,168.82
		c21.42,22.14,46.44,39.8,74.38,52.47C177.9,490.7,194.55,496.15,211.64,499.75 M211.64,391.86v-47.63
		c-6.32-3.91-12.24-8.59-17.66-14c-18.19-18.19-28.2-42.37-28.2-68.09c0-8.92,1.21-17.71,3.6-26.2l-33.18-33.18
		c-8.69,18.42-13.24,38.74-13.24,59.38c0,37.16,14.47,72.1,40.75,98.37c12.06,12.06,25.94,21.67,41.27,28.57
		C207.18,390.07,209.4,390.99,211.64,391.86 M257.01,7.06l-4.14,0.15c-36.29,1.29-71.11,10.05-103.51,26.03
		c-31.39,15.49-58.85,36.9-81.62,63.64l-2.39,2.81l2.61,2.61l42.08,42.08l3.14,3.14l2.8-3.45c4.19-5.16,8.66-10.12,13.29-14.75
		c21.98-21.98,48.98-38.17,78.37-47.03v38.55c-19.74,7.59-37.42,19.11-52.59,34.27c-4.88,4.88-9.49,10.16-13.69,15.7l-2.11,2.78
		l2.47,2.47l42.6,42.6l3.57,3.57l2.66-4.29c3.42-5.5,7.48-10.63,12.1-15.24c1.6-1.6,3.27-3.15,5-4.62v42.25v58.78v27.09
		c-1.73-1.47-3.4-3.02-5-4.62c-15.88-15.88-24.62-36.99-24.62-59.44c0-9.33,1.51-18.49,4.49-27.22l0.8-2.36l-1.76-1.76l-44.63-44.63
		l-3.7-3.7l-2.6,4.54c-13.01,22.69-19.89,48.67-19.89,75.12c0,40.43,15.74,78.44,44.33,107.02c15.17,15.17,32.85,26.69,52.59,34.27
		v38.92c-29.9-8.78-57.35-25.1-79.66-47.4c-35.47-35.48-55.01-82.64-55.01-132.81c0-37.32,10.84-73.28,31.35-104l1.82-2.73
		l-2.32-2.32L62.04,111.3l-3.3-3.3l-2.76,3.77C23.92,155.64,6.96,207.64,6.96,262.14c0,66.54,25.47,129.51,71.72,177.33
		c46.13,47.69,107.99,75.25,174.19,77.6l4.14,0.15v-4.14v-59.28l0-44.58v-59.47v-21.07V299.1v-17.4v-41.37v-65.79v-59.47V35.71V11.2
		V7.06L257.01,7.06z M207.64,494.77c-15.13-3.53-29.95-8.56-44.13-14.99c-27.48-12.46-52.09-29.82-73.16-51.6
		C47.05,383.4,23.2,324.44,23.2,262.14c0-46.06,13.04-90.53,37.77-128.95l24.46,24.46c-18.78,31.41-28.69,67.47-28.69,104.49
		c0,54.5,21.23,105.75,59.77,144.29c18.18,18.18,39.19,32.56,62.45,42.74c9.27,4.06,18.91,7.44,28.68,10.06V494.77L207.64,494.77z
		 M207.64,385.88c-0.34-0.15-0.68-0.3-1.02-0.45c-14.89-6.7-28.37-16.04-40.09-27.75c-25.52-25.52-39.57-59.45-39.57-95.54
		c0-17.97,3.63-35.98,10.52-52.44l27.43,27.43c-2.08,8.13-3.13,16.53-3.13,25.01c0,26.79,10.43,51.98,29.38,70.92
		c5.04,5.04,10.58,9.54,16.48,13.37V385.88L207.64,385.88z"/>
</g>
<g>
	<path class="st2" d="M271.14,11.2c73.11,2.59,138.26,36.45,182.5,88.59l-42.09,42.09c-4.31-5.33-8.91-10.48-13.83-15.39
		c-24.01-24.01-53.28-40.87-85.2-49.51v46.64c19.97,7.25,38.29,18.84,53.76,34.31c4.93,4.93,9.46,10.16,13.59,15.63l-42.63,42.63
		c-3.6-5.86-7.91-11.34-12.89-16.33c-3.69-3.69-7.65-7-11.83-9.93v144.41c4.18-2.93,8.14-6.25,11.83-9.94
		c16.63-16.63,25.79-38.75,25.79-62.27c0-10.01-1.66-19.76-4.85-28.95l44.56-44.56c12.77,22.12,19.58,47.29,19.58,73.51
		c0,39.36-15.33,76.36-43.16,104.19c-15.47,15.47-33.78,27.07-53.76,34.33v46.62c31.92-8.64,61.19-25.49,85.2-49.51
		c36.23-36.23,56.18-84.4,56.18-135.64c0-38.2-11.1-74.69-31.75-105.8l42.54-42.54c30.49,41.56,48.5,92.85,48.5,148.35
		c0,135.65-107.56,246.16-242.05,250.93v-7.87v-51.52V409.2v-59.47v-67.44v-33.86v-73.9v-59.47V35.71V11.2 M312.51,499.75
		c17.09-3.61,33.73-9.05,49.78-16.33c27.94-12.67,52.96-30.32,74.38-52.47c44.03-45.52,68.28-105.47,68.28-168.82
		c0-48.8-14.27-95.48-41.37-135.6l-30.94,30.94c19.31,31.35,29.49,67.39,29.49,104.66c0,53.44-20.81,103.67-58.59,141.46
		c-25.36,25.36-56.73,43.32-91.02,52.2V499.75 M312.51,391.86c2.24-0.87,4.46-1.8,6.66-2.79c15.33-6.9,29.22-16.51,41.27-28.57
		c26.28-26.28,40.75-61.21,40.75-98.37c0-20.8-4.62-41.25-13.43-59.78l-33.12,33.12c2.48,8.63,3.73,17.57,3.73,26.66
		c0,25.72-10.02,49.9-28.2,68.09c-5.42,5.42-11.33,10.09-17.66,14V391.86 M267.14,7.06v4.14v24.5v79.36v59.47v73.9v33.86v67.44
		v59.47v44.47v51.52v7.87v4.14l4.14-0.15c66.19-2.35,128.06-29.91,174.19-77.6c46.25-47.81,71.72-110.79,71.72-177.33
		c0-54.65-17.04-106.77-49.28-150.71l-2.76-3.76l-3.3,3.3l-42.54,42.54l-2.31,2.31l1.81,2.73c20.34,30.63,31.09,66.45,31.09,103.59
		c0,50.17-19.54,97.33-55.01,132.81c-21.98,21.98-48.98,38.16-78.37,47.03v-38.54c19.74-7.59,37.42-19.11,52.59-34.27
		c28.59-28.59,44.33-66.6,44.33-107.02c0-26.61-6.96-52.72-20.12-75.51l-2.61-4.51l-3.69,3.69l-44.56,44.56l-1.77,1.77l0.82,2.37
		c3.07,8.86,4.63,18.15,4.63,27.64c0,22.45-8.74,43.56-24.62,59.44c-1.6,1.6-3.27,3.14-5,4.62V198.08c1.73,1.47,3.4,3.01,5.01,4.62
		c4.71,4.71,8.85,9.96,12.31,15.59l2.65,4.32l3.59-3.59l42.63-42.63l2.46-2.46l-2.1-2.78c-4.27-5.66-8.97-11.06-13.96-16.04
		c-15.16-15.15-32.83-26.67-52.59-34.26V82.3c29.39,8.87,56.4,25.05,78.37,47.03c4.72,4.72,9.28,9.79,13.54,15.08l2.79,3.46
		l3.15-3.15l42.09-42.09l2.61-2.61l-2.38-2.81c-22.77-26.84-50.26-48.33-81.7-63.87C342.53,17.29,307.64,8.5,271.28,7.21
		L267.14,7.06L267.14,7.06z M437.69,158.08l25.26-25.26c24.88,38.5,38,83.11,38,129.31c0,62.3-23.85,121.27-67.15,166.04
		c-21.07,21.78-45.68,39.14-73.16,51.6c-14.18,6.43-29,11.46-44.13,14.99v-35.9c33.8-9.31,64.81-27.4,89.85-52.44
		c38.54-38.54,59.77-89.78,59.77-144.29C466.13,225.3,456.31,189.4,437.69,158.08L437.69,158.08z M359.12,236.66l27.38-27.38
		c7.01,16.57,10.7,34.73,10.7,52.85c0,36.09-14.05,70.02-39.58,95.54c-11.71,11.71-25.2,21.05-40.09,27.75
		c-0.34,0.15-0.68,0.3-1.02,0.45v-39.45c5.9-3.84,11.44-8.33,16.48-13.37c18.94-18.94,29.38-44.13,29.38-70.92
		C362.37,253.49,361.28,244.93,359.12,236.66L359.12,236.66z"/>
</g>
</svg>
