<?xml version="1.0" encoding="utf-8"?>
<!-- Generator: Adobe Illustrator 26.0.3, SVG Export Plug-In . SVG Version: 6.00 Build 0)  -->
<svg version="1.1" id="Layer_1" xmlns="http://www.w3.org/2000/svg" xmlns:xlink="http://www.w3.org/1999/xlink" x="0px" y="0px"
	 viewBox="0 0 3251.6 450" style="enable-background:new 0 0 3251.6 450;" xml:space="preserve">
<style type="text/css">
	.st0{fill:#FFFFFF;stroke:#ED2D49;stroke-width:10;stroke-miterlimit:10;}
	.st1{fill:#FFFFFF;}
	.st2{fill:#FFFFFF;stroke:#ED2D49;stroke-width:4;stroke-miterlimit:10;}
</style>
<g>
	<path class="st0" d="M263.2,252.7"/>
	<path class="st1" d="M216.9,395.5v-39.7v-52.9v-18.7v-26.3v-15.5v-36.8v-58.5V94.2V23.6V1.8C152,4.1,94.2,34,54.8,80.3l37.4,37.4
		c3.8-4.6,7.8-9.1,12.1-13.4c21.4-21.4,47.4-36.4,75.8-44v41.5c-17.8,6.4-34.1,16.8-47.8,30.5c-4.3,4.3-8.2,8.9-11.9,13.6l37.9,37.9
		c3.2-5.1,6.9-9.9,11.3-14.2c3.3-3.3,6.8-6.2,10.5-8.8v44.8v52.3v31.4c-3.7-2.6-7.2-5.6-10.5-8.8c-14.8-14.8-22.9-34.5-22.9-55.4
		c0-8.8,1.4-17.3,4.2-25.4l-39.7-39.7c-11.2,19.6-17.2,41.9-17.2,65.1c0,35,13.6,67.9,38.4,92.7c13.8,13.8,30.1,24.1,47.8,30.5V390
		c-28.8-7.6-55.3-22.7-76.9-44.3c-32.2-32.2-50-75.1-50-120.7c0-34.1,10-66.7,28.5-94.5L44.5,93.3C17.5,130.2,1.6,175.8,1.6,225
		c0,120.7,95.7,219,215.3,223.2L216.9,395.5L216.9,395.5z M174.2,337.9c-13.6-6.1-26-14.7-36.7-25.4c-23.4-23.4-36.2-54.5-36.2-87.5
		c0-18.4,4.1-36.4,11.8-52.8l29.5,29.5c-2.1,7.6-3.2,15.4-3.2,23.3c0,22.9,8.9,44.4,25.1,60.6c4.8,4.8,10.1,9,15.7,12.5v42.4
		C178.1,339.6,176.2,338.8,174.2,337.9z M69.7,375.2C30.5,334.7,8.9,281.4,8.9,225c0-43.3,12.6-84.7,36.6-120.3l26.8,26.8
		c-17.3,28-26.5,60.2-26.5,93.5c0,47.5,18.5,92.2,52.1,125.9c15.9,15.9,34.2,28.4,54.5,37.3c9,3.9,18.2,7.1,27.6,9.5v38.8
		c-15.2-3.2-30-8.1-44.3-14.5C111,410.6,88.7,394.9,69.7,375.2z"/>
	<path class="st1" d="M405.3,93l-37.9,37.8c18.4,27.7,28.2,60.1,28.2,94.1c0,45.6-17.8,88.4-50,120.7c-21.4,21.4-47.4,36.4-75.8,44
		v-41.5c17.8-6.5,34.1-16.8,47.8-30.5c24.8-24.8,38.4-57.7,38.4-92.7c0-23.3-6.1-45.7-17.4-65.4L299,199.2
		c2.8,8.2,4.3,16.9,4.3,25.8c0,20.9-8.1,40.6-23,55.4c-3.3,3.3-6.8,6.2-10.5,8.8V160.8c3.7,2.6,7.2,5.6,10.5,8.8
		c4.4,4.4,8.3,9.3,11.5,14.5l37.9-37.9c-3.7-4.9-7.7-9.5-12.1-13.9c-13.8-13.8-30.1-24.1-47.8-30.5V60.3c28.4,7.7,54.4,22.7,75.8,44
		c4.4,4.4,8.5,8.9,12.3,13.7l37.5-37.5C356.1,34.2,298.1,4.1,233.1,1.8v21.8v70.6v52.9v65.7v30.1v60v52.9v39.6v45.8v7
		C352.7,444,448.4,345.7,448.4,225C448.4,175.6,432.4,130,405.3,93z M285.6,285.6c16.2-16.2,25.1-37.7,25.1-60.6
		c0-8.1-1.1-16-3.3-23.7l29.5-29.5c7.8,16.5,12,34.7,12,53.2c0,33.1-12.9,64.1-36.2,87.5c-10.7,10.7-23.1,19.3-36.7,25.4
		c-2,0.9-3.9,1.7-5.9,2.5V298C275.5,294.6,280.8,290.4,285.6,285.6z M380.3,375.2c-19.1,19.7-41.3,35.4-66.2,46.7
		c-14.3,6.5-29.1,11.3-44.3,14.5v-39.1c30.5-7.9,58.4-23.9,81-46.4C384.5,317.2,403,272.5,403,225c0-33.2-9-65.2-26.2-93.1
		l27.5-27.5c24.1,35.7,36.8,77.2,36.8,120.6C441.1,281.4,419.5,334.7,380.3,375.2z"/>
	<g>
		<path class="st1" d="M28.3,267.2l-9.2,2.1l-1.1-4.6l21.8-5.1l3.6,15.5l-3.8,0.9l-2.5-11l-5,1.1l2.2,9.6l-3.8,0.9L28.3,267.2z"/>
		<path class="st1" d="M51.1,296.7l1.8,4.5l-13.9,5.5c-2.5,1-4.7,1-6.6,0c-1.9-1-3.3-2.8-4.4-5.6c-1-2.5-1.2-4.8-0.5-6.7
			s2.2-3.4,4.7-4.4l14.1-5.5l1.7,4.4l-13.7,5.4c-1.3,0.5-2.2,1.2-2.7,2.2c-0.5,0.9-0.5,2,0,3.2c1.1,2.8,3,3.6,5.7,2.6L51.1,296.7z"
			/>
		<path class="st1" d="M37.9,321.5l19.4-11.1l8.2,14.3l-3.4,2l-5.9-10.3l-4.2,2.4l5.5,9.5l-3.4,2l-5.5-9.5l-5,2.9l6.2,10.8l-3.5,2
			L37.9,321.5z"/>
		<path class="st1" d="M73.7,347c0.8-0.8,1.2-1.6,1.2-2.6c0-0.9-0.4-1.9-1.3-3c-0.8-1-1.6-1.7-2.4-1.9s-1.5-0.1-2.2,0.4
			c-0.6,0.4-0.8,1-0.9,1.7c0,0.7,0.2,1.6,0.8,2.8c0.5,1.2,1.1,2.4,1.5,3.5c0.5,1.1,0.8,2.1,1,3c0.1,0.5,0.2,1,0.2,1.6
			c0,0.5,0,1-0.2,1.5c-0.1,0.5-0.4,1-0.7,1.5c-0.3,0.5-0.8,1-1.4,1.5c-1,0.8-1.9,1.2-2.9,1.5s-1.9,0.2-2.9-0.1
			c-1-0.3-1.9-0.7-2.8-1.4c-0.9-0.7-1.7-1.5-2.5-2.6c-0.9-1.1-1.5-2.2-2-3.3c-0.5-1.1-0.7-2.1-0.7-3.2c0-1,0.2-2,0.6-3
			c0.4-1,1.2-1.8,2.1-2.6l2.8,3.5c-0.9,0.7-1.3,1.7-1.3,2.8s0.5,2.2,1.4,3.4c0.9,1.1,1.7,1.8,2.6,2s1.7,0.1,2.5-0.6
			c0.3-0.2,0.5-0.4,0.6-0.7s0.2-0.5,0.3-0.9c0-0.4,0-0.8-0.2-1.2c-0.1-0.5-0.3-1-0.7-1.7c-0.6-1.3-1.1-2.4-1.5-3.3
			c-0.4-0.9-0.7-1.8-0.9-2.6c-0.3-1.3-0.3-2.5-0.1-3.5c0.3-1,1-2,2.1-2.9c0.8-0.6,1.6-1.1,2.5-1.3c0.9-0.3,1.8-0.3,2.7-0.1
			c0.9,0.2,1.8,0.5,2.7,1.1c0.9,0.6,1.8,1.4,2.6,2.5c0.9,1.1,1.5,2.2,1.9,3.3s0.6,2.1,0.5,3.1c-0.1,1-0.3,1.9-0.8,2.8
			s-1.1,1.7-1.9,2.4L73.7,347z"/>
		<path class="st1" d="M73.2,370.2L88.7,354l3.4,3.2l-12.7,13.2l8,7.7l-2.8,2.9L73.2,370.2z"/>
		<path class="st1" d="M94.3,389.3l13.2-18.1l13.3,9.7l-2.3,3.2l-9.6-7l-2.8,3.9l8.9,6.4l-2.3,3.2l-8.9-6.4l-3.4,4.7l10.1,7.3
			l-2.3,3.2L94.3,389.3z"/>
		<path class="st1" d="M118.6,405.7l11.1-19.5l4.1,2.3L122.7,408L118.6,405.7z"/>
		<path class="st1" d="M147,419.5l-3-17.6l-5.8,13.9l-4-1.7l8.7-20.6l4.6,1.9l2.6,16.7l5.6-13.3l4,1.7l-8.7,20.6L147,419.5z"/>
	</g>
	<path class="st2" d="M275.4,416.6"/>
	<g>
		<path class="st1" d="M298.1,410.4l3.6,8.7l-4.3,1.8l-8.6-20.6l14.7-6.1l1.5,3.6l-10.4,4.3l2,4.7l9.1-3.8l1.5,3.6L298.1,410.4z"/>
		<path class="st1" d="M323.2,409.1l-10.9-19.6l4.1-2.3l10.9,19.6L323.2,409.1z"/>
		<path class="st1" d="M348.9,392.7l-3.4-4.7c-0.6-0.9-1.3-1.4-2-1.5c-0.7-0.1-1.5,0.3-2.6,1l-4.1,2.9l5.1,7.1l-3.7,2.6l-13-18.2
			l9.2-6.6c0.8-0.6,1.7-1,2.6-1.2c0.9-0.2,1.7-0.3,2.5-0.2c0.8,0.1,1.6,0.4,2.3,0.9c0.7,0.5,1.4,1.1,1.9,1.8c0.7,1,1.1,2,1.2,3.1
			c0.1,1.1-0.2,2.1-0.9,3c1-0.3,1.8-0.3,2.6,0s1.5,1,2.2,2l3.7,5.1L348.9,392.7z M331.2,382.6l3.5,4.9l4.8-3.4
			c1-0.7,1.6-1.5,1.7-2.2c0.1-0.8-0.1-1.5-0.6-2.2c-0.5-0.7-1.1-1.1-1.9-1.3s-1.6,0.1-2.5,0.8L331.2,382.6z"/>
		<path class="st1" d="M362.5,381.8l-15.4-16.2l11.9-11.4l2.7,2.8l-8.6,8.2l3.3,3.5l7.9-7.6l2.7,2.9l-7.9,7.6l4,4.2l9-8.6l2.7,2.9
			L362.5,381.8z"/>
		<path class="st1" d="M392.2,349.5l-4.5-1.7l-5.1,6.5l2.6,4.1l-3.1,3.9l-12.6-20.1l3.4-4.3l22.5,7.6L392.2,349.5z M375.1,343.1
			L375.1,343.1l5.2,7.8l3.5-4.5L375.1,343.1z"/>
		<path class="st1" d="M408.2,324.5l-5-2.9c-0.9-0.5-1.7-0.7-2.4-0.5c-0.6,0.2-1.3,0.9-2,2.1l-2.5,4.3l7.6,4.3l-2.2,4l-19.4-11.1
			l5.6-9.9c0.5-0.9,1.1-1.6,1.8-2.2s1.5-1,2.2-1.2s1.6-0.3,2.5-0.2c0.9,0.1,1.7,0.4,2.5,0.9c1,0.6,1.8,1.4,2.4,2.3s0.7,2,0.5,3.1
			c0.8-0.7,1.5-1.1,2.3-1.1c0.8,0,1.7,0.3,2.9,0.9l5.5,3.1L408.2,324.5z M387.9,322.7l5.2,3l2.9-5.1c0.6-1.1,0.8-2,0.6-2.7
			s-0.7-1.3-1.5-1.7c-0.8-0.4-1.5-0.6-2.2-0.4s-1.4,0.8-2,1.8L387.9,322.7z"/>
		<path class="st1" d="M422.1,293.1l-14.3-5.5l12.9,9.4l-1.6,4.4l-15.7-1.6l14.3,5.4l-1.5,4.1l-20.9-8l2.5-6.4l16.8,2.1l-13.9-9.6
			l2.4-6.3l20.9,8L422.1,293.1z"/>
		<path class="st1" d="M414.2,261.5c-1.1-0.1-2.1,0.1-2.8,0.7c-0.7,0.6-1.2,1.6-1.5,3c-0.3,1.3-0.3,2.3,0,3.1s0.9,1.2,1.7,1.4
			c0.7,0.1,1.3,0,1.9-0.4c0.5-0.4,1.1-1.2,1.6-2.4c0.6-1.2,1.1-2.3,1.7-3.4s1.1-2,1.6-2.7c0.3-0.4,0.7-0.8,1-1.2
			c0.4-0.4,0.8-0.6,1.3-0.9c0.5-0.2,1-0.4,1.6-0.4c0.6,0,1.3,0,2.1,0.2c1.2,0.3,2.2,0.7,3,1.3c0.8,0.6,1.4,1.4,1.8,2.3
			s0.6,1.9,0.7,3s-0.1,2.3-0.3,3.6c-0.3,1.4-0.7,2.6-1.2,3.6c-0.5,1.1-1.2,1.9-2,2.6c-0.8,0.7-1.7,1.2-2.7,1.4c-1,0.3-2.1,0.3-3.4,0
			l0.9-4.4c1.1,0.2,2.1-0.1,2.9-0.8c0.8-0.7,1.4-1.8,1.7-3.3c0.3-1.4,0.2-2.5-0.1-3.3c-0.4-0.9-1.1-1.4-2-1.6
			c-0.3-0.1-0.6-0.1-0.9,0c-0.3,0-0.6,0.2-0.9,0.4c-0.3,0.2-0.6,0.5-0.9,0.9c-0.3,0.4-0.6,0.9-0.9,1.6c-0.6,1.3-1.1,2.4-1.5,3.3
			c-0.4,0.9-0.9,1.7-1.4,2.4c-0.8,1.1-1.7,1.8-2.6,2.3s-2.2,0.5-3.5,0.2c-1-0.2-1.9-0.6-2.6-1.1c-0.8-0.5-1.4-1.2-1.8-2
			c-0.5-0.8-0.7-1.7-0.9-2.8c-0.1-1.1,0-2.3,0.3-3.6c0.3-1.4,0.7-2.6,1.3-3.6c0.6-1,1.3-1.8,2.1-2.4s1.7-1,2.6-1.2s2-0.2,3-0.1
			L414.2,261.5z"/>
	</g>
	<g>
		<path class="st1" d="M213.8,445.1c-11.8-0.4-25.1-2.7-30.6-3.8V154.8l-4.9,3.4c-3.9,2.7-7.6,5.8-10.9,9.2
			c-3.5,3.5-6.8,7.4-9.6,11.5l-33.2-33.2c3.1-3.9,6.4-7.6,9.9-11.1c13.4-13.4,29.1-23.4,46.7-29.8l2.1-0.7V56.2l-3.9,1.1
			c-29,7.9-55.7,23.4-77.2,44.8c-3.5,3.5-6.9,7.2-10.1,11l-33-33c19.3-22.1,42.4-39.8,68.6-52.8c27-13.3,56-20.8,86.2-22.3V445.1z"
			/>
		<path class="st1" d="M210.7,8.3v15.2v70.6v52.9v58.5v36.8v15.5v26.3v18.7v52.9v39.7v46.3c-9.1-0.5-18.7-2.1-24.4-3.1v-2.3v-38.8
			V390v-41.8v-7.8V298v-8.8v-31.4v-52.3v-44.8v-12l-9.8,6.9c-4,2.8-7.9,6-11.4,9.5c-2.8,2.8-5.4,5.8-7.8,8.9l-28.7-28.7
			c2.5-3,5.2-6,7.9-8.7c13.1-13.1,28.4-22.9,45.6-29.1l4.1-1.5v-4.4V60.3v-8.1l-7.9,2.1c-29.5,8-56.7,23.8-78.6,45.7
			c-2.8,2.8-5.4,5.6-8.1,8.6L63.3,80C82,59.2,104,42.5,129.1,30.1C154.7,17.5,182.1,10.1,210.7,8.3 M216.9,1.8
			C152,4.1,94.2,34,54.8,80.3l37.4,37.4c3.8-4.6,7.8-9.1,12.1-13.4c21.4-21.4,47.4-36.4,75.8-44v41.5c-17.8,6.4-34.1,16.8-47.8,30.5
			c-4.3,4.3-8.2,8.9-11.9,13.6l37.9,37.9c3.2-5.1,6.9-9.9,11.3-14.2c3.3-3.3,6.8-6.2,10.5-8.8v44.8v52.3v31.4v8.8v42.4v7.8V390v7.6
			v38.8v7.5c0,0,20.7,4.4,36.8,4.4v-52.7l0,0v-39.7v-52.9v-18.7v-26.3v-15.5v-36.8v-58.5V94.2V23.6V1.8L216.9,1.8z M180.1,348.2V390
			V348.2L180.1,348.2z"/>
	</g>
	<g>
		<path class="st1" d="M235.9,5c30.2,1.5,59.1,9,86.1,22.3c26.2,13,49.3,30.7,68.6,52.8l-33,33c-3.2-3.8-6.6-7.5-10.1-11
			c-21.5-21.5-48.2-37-77.2-44.8l-3.9-1.1V104l2,0.7c17.6,6.4,33.3,16.4,46.7,29.8c3.5,3.5,6.8,7.2,9.9,11.1l-33.2,33.2
			c-2.8-4.1-6-7.9-9.6-11.5c-3.4-3.4-7-6.5-10.9-9.2l-4.9-3.4v286.5c-5.4,1-18.8,3.4-30.6,3.8L235.9,5L235.9,5z"/>
		<path class="st1" d="M239,8.3c28.6,1.8,56,9.2,81.7,21.8c25,12.3,47.1,29.1,65.7,49.9l-28.5,28.5c-2.6-3-5.3-5.8-8-8.6
			c-21.9-21.9-49-37.7-78.6-45.7l-7.9-2.1v8.1v41.5v4.4l4.1,1.5c17.1,6.2,32.5,16,45.5,29.1c2.8,2.8,5.4,5.7,7.9,8.7l-28.7,28.7
			c-2.4-3.1-5-6.1-7.8-8.9c-3.5-3.5-7.3-6.7-11.4-9.5l-9.8-6.9v12v44.8v52.3v31.4v8.8v42.4v7.8V390v7.6v38.8v2.3
			c-5.6,1-15.2,2.5-24.4,3.1v-46.3v-39.7v-52.9v-18.7v-26.3v-15.5v-36.8v-58.5V94.2V23.6L239,8.3 M232.8,1.8v21.8v70.6v52.9v58.5
			v36.8v15.5v26.3v18.7v52.9v39.7l0,0v52.7c16.1,0,36.8-4.4,36.8-4.4v-7.5v-38.8V390v-41.8v-7.8V298v-8.8v-31.4v-52.3v-44.8
			c3.7,2.6,7.2,5.6,10.5,8.8c4.3,4.3,8.1,9.1,11.3,14.2l37.9-37.9c-3.6-4.8-7.6-9.3-11.9-13.6c-13.8-13.8-30.1-24.1-47.8-30.5V60.3
			C298,68,324.1,83,345.4,104.3c4.3,4.3,8.3,8.8,12.1,13.4l37.4-37.4C355.6,34.1,297.7,4.1,232.8,1.8L232.8,1.8z M269.6,348.2V390
			V348.2L269.6,348.2z"/>
	</g>
	<path class="st0" d="M263.2,252.7"/>
	<path class="st1" d="M216.9,395.5v-39.7v-52.9v-18.7v-26.3v-15.5v-36.8v-58.5V94.2V23.6V1.8C152,4.1,94.2,34,54.8,80.3l37.4,37.4
		c3.8-4.6,7.8-9.1,12.1-13.4c21.4-21.4,47.4-36.4,75.8-44v41.5c-17.8,6.4-34.1,16.8-47.8,30.5c-4.3,4.3-8.2,8.9-11.9,13.6l37.9,37.9
		c3.2-5.1,6.9-9.9,11.3-14.2c3.3-3.3,6.8-6.2,10.5-8.8v44.8v52.3v31.4c-3.7-2.6-7.2-5.6-10.5-8.8c-14.8-14.8-22.9-34.5-22.9-55.4
		c0-8.8,1.4-17.3,4.2-25.4l-39.7-39.7c-11.2,19.6-17.2,41.9-17.2,65.1c0,35,13.6,67.9,38.4,92.7c13.8,13.8,30.1,24.1,47.8,30.5V390
		c-28.8-7.6-55.3-22.7-76.9-44.3c-32.2-32.2-50-75.1-50-120.7c0-34.1,10-66.7,28.5-94.5L44.5,93.3C17.5,130.2,1.6,175.8,1.6,225
		c0,120.7,95.7,219,215.3,223.2L216.9,395.5L216.9,395.5z M174.2,337.9c-13.6-6.1-26-14.7-36.7-25.4c-23.4-23.4-36.2-54.5-36.2-87.5
		c0-18.4,4.1-36.4,11.8-52.8l29.5,29.5c-2.1,7.6-3.2,15.4-3.2,23.3c0,22.9,8.9,44.4,25.1,60.6c4.8,4.8,10.1,9,15.7,12.5v42.4
		C178.1,339.6,176.2,338.8,174.2,337.9z M69.7,375.2C30.5,334.7,8.9,281.4,8.9,225c0-43.3,12.6-84.7,36.6-120.3l26.8,26.8
		c-17.3,28-26.5,60.2-26.5,93.5c0,47.5,18.5,92.2,52.1,125.9c15.9,15.9,34.2,28.4,54.5,37.3c9,3.9,18.2,7.1,27.6,9.5v38.8
		c-15.2-3.2-30-8.1-44.3-14.5C111,410.6,88.7,394.9,69.7,375.2z"/>
	<path class="st1" d="M405.3,93l-37.9,37.8c18.4,27.7,28.2,60.1,28.2,94.1c0,45.6-17.8,88.4-50,120.7c-21.4,21.4-47.4,36.4-75.8,44
		v-41.5c17.8-6.5,34.1-16.8,47.8-30.5c24.8-24.8,38.4-57.7,38.4-92.7c0-23.3-6.1-45.7-17.4-65.4L299,199.2
		c2.8,8.2,4.3,16.9,4.3,25.8c0,20.9-8.1,40.6-23,55.4c-3.3,3.3-6.8,6.2-10.5,8.8V160.8c3.7,2.6,7.2,5.6,10.5,8.8
		c4.4,4.4,8.3,9.3,11.5,14.5l37.9-37.9c-3.7-4.9-7.7-9.5-12.1-13.9c-13.8-13.8-30.1-24.1-47.8-30.5V60.3c28.4,7.7,54.4,22.7,75.8,44
		c4.4,4.4,8.5,8.9,12.3,13.7l37.5-37.5C356.1,34.2,298.1,4.1,233.1,1.8v21.8v70.6v52.9v65.7v30.1v60v52.9v39.6v45.8v7
		C352.7,444,448.4,345.7,448.4,225C448.4,175.6,432.4,130,405.3,93z M285.6,285.6c16.2-16.2,25.1-37.7,25.1-60.6
		c0-8.1-1.1-16-3.3-23.7l29.5-29.5c7.8,16.5,12,34.7,12,53.2c0,33.1-12.9,64.1-36.2,87.5c-10.7,10.7-23.1,19.3-36.7,25.4
		c-2,0.9-3.9,1.7-5.9,2.5V298C275.5,294.6,280.8,290.4,285.6,285.6z M380.3,375.2c-19.1,19.7-41.3,35.4-66.2,46.7
		c-14.3,6.5-29.1,11.3-44.3,14.5v-39.1c30.5-7.9,58.4-23.9,81-46.4C384.5,317.2,403,272.5,403,225c0-33.2-9-65.2-26.2-93.1
		l27.5-27.5c24.1,35.7,36.8,77.2,36.8,120.6C441.1,281.4,419.5,334.7,380.3,375.2z"/>
	<path class="st2" d="M275.4,416.6"/>
	<g>
		<path class="st1" d="M213.8,445.1c-11.8-0.4-25.1-2.7-30.6-3.8V154.8l-4.9,3.4c-3.9,2.7-7.6,5.8-10.9,9.2
			c-3.5,3.5-6.8,7.4-9.6,11.5l-33.2-33.2c3.1-3.9,6.4-7.6,9.9-11.1c13.4-13.4,29.1-23.4,46.7-29.8l2.1-0.7V56.2l-3.9,1.1
			c-29,7.9-55.7,23.4-77.2,44.8c-3.5,3.5-6.9,7.2-10.1,11l-33-33c19.3-22.1,42.4-39.8,68.6-52.8c27-13.3,56-20.8,86.2-22.3V445.1z"
			/>
		<path class="st1" d="M210.7,8.3v15.2v70.6v52.9v58.5v36.8v15.5v26.3v18.7v52.9v39.7v46.3c-9.1-0.5-18.7-2.1-24.4-3.1v-2.3v-38.8
			V390v-41.8v-7.8V298v-8.8v-31.4v-52.3v-44.8v-12l-9.8,6.9c-4,2.8-7.9,6-11.4,9.5c-2.8,2.8-5.4,5.8-7.8,8.9l-28.7-28.7
			c2.5-3,5.2-6,7.9-8.7c13.1-13.1,28.4-22.9,45.6-29.1l4.1-1.5v-4.4V60.3v-8.1l-7.9,2.1c-29.5,8-56.7,23.8-78.6,45.7
			c-2.8,2.8-5.4,5.6-8.1,8.6L63.3,80C82,59.2,104,42.5,129.1,30.1C154.7,17.5,182.1,10.1,210.7,8.3 M216.9,1.8
			C152,4.1,94.2,34,54.8,80.3l37.4,37.4c3.8-4.6,7.8-9.1,12.1-13.4c21.4-21.4,47.4-36.4,75.8-44v41.5c-17.8,6.4-34.1,16.8-47.8,30.5
			c-4.3,4.3-8.2,8.9-11.9,13.6l37.9,37.9c3.2-5.1,6.9-9.9,11.3-14.2c3.3-3.3,6.8-6.2,10.5-8.8v44.8v52.3v31.4v8.8v42.4v7.8V390v7.6
			v38.8v7.5c0,0,20.7,4.4,36.8,4.4v-52.7l0,0v-39.7v-52.9v-18.7v-26.3v-15.5v-36.8v-58.5V94.2V23.6V1.8L216.9,1.8z M180.1,348.2V390
			V348.2L180.1,348.2z"/>
	</g>
	<g>
		<path class="st1" d="M235.9,5c30.2,1.5,59.1,9,86.1,22.3c26.2,13,49.3,30.7,68.6,52.8l-33,33c-3.2-3.8-6.6-7.5-10.1-11
			c-21.5-21.5-48.2-37-77.2-44.8l-3.9-1.1V104l2,0.7c17.6,6.4,33.3,16.4,46.7,29.8c3.5,3.5,6.8,7.2,9.9,11.1l-33.2,33.2
			c-2.8-4.1-6-7.9-9.6-11.5c-3.4-3.4-7-6.5-10.9-9.2l-4.9-3.4v286.5c-5.4,1-18.8,3.4-30.6,3.8L235.9,5L235.9,5z"/>
		<path class="st1" d="M239,8.3c28.6,1.8,56,9.2,81.7,21.8c25,12.3,47.1,29.1,65.7,49.9l-28.5,28.5c-2.6-3-5.3-5.8-8-8.6
			c-21.9-21.9-49-37.7-78.6-45.7l-7.9-2.1v8.1v41.5v4.4l4.1,1.5c17.1,6.2,32.5,16,45.5,29.1c2.8,2.8,5.4,5.7,7.9,8.7l-28.7,28.7
			c-2.4-3.1-5-6.1-7.8-8.9c-3.5-3.5-7.3-6.7-11.4-9.5l-9.8-6.9v12v44.8v52.3v31.4v8.8v42.4v7.8V390v7.6v38.8v2.3
			c-5.6,1-15.2,2.5-24.4,3.1v-46.3v-39.7v-52.9v-18.7v-26.3v-15.5v-36.8v-58.5V94.2V23.6L239,8.3 M232.8,1.8v21.8v70.6v52.9v58.5
			v36.8v15.5v26.3v18.7v52.9v39.7l0,0v52.7c16.1,0,36.8-4.4,36.8-4.4v-7.5v-38.8V390v-41.8v-7.8V298v-8.8v-31.4v-52.3v-44.8
			c3.7,2.6,7.2,5.6,10.5,8.8c4.3,4.3,8.1,9.1,11.3,14.2l37.9-37.9c-3.6-4.8-7.6-9.3-11.9-13.6c-13.8-13.8-30.1-24.1-47.8-30.5V60.3
			C298,68,324.1,83,345.4,104.3c4.3,4.3,8.3,8.8,12.1,13.4l37.4-37.4C355.6,34.1,297.7,4.1,232.8,1.8L232.8,1.8z M269.6,348.2V390
			V348.2L269.6,348.2z"/>
	</g>
</g>
<g>
	<path class="st1" d="M660,238.3v72.3h-35.9V139.1h122.1v30H660v39h75.3v30.2H660z"/>
	<path class="st1" d="M882.7,139.1h36.6v114.4c0,41.6-25.5,63-70.4,63c-41.5,0-67.6-19.6-67.6-61V139.1h36.4v113.1
		c0,21.2,11.4,34.6,30.7,34.6c23,0,34.3-10.8,34.3-33.3V139.1z"/>
	<path class="st1" d="M959.3,310.6V139.1h125.9v30h-91.1v36.7h83.9V236h-83.9v44.2h95.2v30.5H959.3z"/>
	<path class="st1" d="M1220.4,189.7c-1.8-17.6-12.4-26.1-34.1-26.1c-20.1,0-30.7,7.2-30.7,20.2c0,10.8,7.5,17,26.6,21.7
		c19.4,4.7,38.2,9.3,50.8,15c15,6.7,26.8,17.3,26.8,41.6c0,37.7-28.4,54.5-68.4,54.5c-42.3,0-71.7-18.9-72.5-57.3h34.6
		c0.5,17.6,15.2,28.4,38.2,28.4c21.2,0,33.3-9,33.3-24.3c0-10.1-5.2-17.1-26.6-21.7c-21.2-4.6-34.8-7.7-47-13.2
		c-18.3-8.3-28.6-20.7-28.6-42.4c0-30.7,20.9-52.7,62.7-52.7c43.4,0,67.6,23.5,68.9,56.3H1220.4z"/>
	<path class="st1" d="M1295.5,310.6V139.1h35.9v140.3h84.9v31.3H1295.5z"/>
	<path class="st1" d="M1451.6,310.6V139.1h125.9v30h-91.1v36.7h83.9V236h-83.9v44.2h95.2v30.5H1451.6z"/>
	<path class="st1" d="M1615.6,310.6V139.1h35.9v171.5H1615.6z"/>
	<path class="st1" d="M1797.3,310.6L1724,195.4v115.2h-33.3V139.1h37.9l68.1,110.3V139.1h33.5v171.5H1797.3z"/>
	<path class="st1" d="M1994.9,238.3v72.3H1959V139.1h122v30h-86.2v39h75.3v30.2H1994.9z"/>
	<path class="st1" d="M2116.1,310.6V139.1h35.9v171.5H2116.1z"/>
	<path class="st1" d="M2291.1,310.6v-44.2c0-16.5-6.2-23-26.8-23H2226v67.2h-34.8V139.1h87c31.7,0,52.6,21.2,52.6,49.6
		c0,18.3-9,33.8-25.5,39.8c15.2,4.9,20.9,13.4,20.9,33.6v48.6H2291.1z M2226,168.8v45.7h44.9c19.1,0,26.3-9.6,26.3-22.7
		c0-13.4-7.2-23-25-23H2226z"/>
	<path class="st1" d="M2367.2,310.6V139.1h125.9v30H2402v36.7h83.9V236H2402v44.2h95.2v30.5H2367.2z"/>
	<path class="st1" d="M2650.2,310.6l-10.8-35.4h-63.2l-12.1,35.4h-37.9l61.1-171.5h41.5l60.4,171.5H2650.2z M2607.6,177.6h-0.3
		l-21.9,68.2h43.6L2607.6,177.6z"/>
	<path class="st1" d="M2823.8,310.6v-44.2c0-16.5-6.2-23-26.8-23h-38.2v67.2H2724V139.1h87c31.7,0,52.6,21.2,52.6,49.6
		c0,18.3-9,33.8-25.5,39.8c15.2,4.9,20.9,13.4,20.9,33.6v48.6H2823.8z M2758.8,168.8v45.7h44.9c19.1,0,26.3-9.6,26.3-22.7
		c0-13.4-7.2-23-25-23H2758.8z"/>
	<path class="st1" d="M3032.5,310.6V193.1l-32,117.5h-35.6l-31.7-117v117h-33.3V139.1h52.6l31,125.8l31-125.8h51.6v171.5H3032.5z"/>
	<path class="st1" d="M3203.1,189.7c-1.8-17.6-12.4-26.1-34.1-26.1c-20.1,0-30.7,7.2-30.7,20.2c0,10.8,7.5,17,26.6,21.7
		c19.4,4.7,38.2,9.3,50.8,15c15,6.7,26.8,17.3,26.8,41.6c0,37.7-28.4,54.5-68.4,54.5c-42.3,0-71.7-18.9-72.5-57.3h34.6
		c0.5,17.6,15.2,28.4,38.2,28.4c21.2,0,33.3-9,33.3-24.3c0-10.1-5.2-17.1-26.6-21.7c-21.2-4.6-34.8-7.7-47-13.2
		c-18.3-8.3-28.6-20.7-28.6-42.4c0-30.7,20.9-52.7,62.7-52.7c43.4,0,67.6,23.5,68.9,56.3H3203.1z"/>
</g>
</svg>
