<svg id="Layer_1" data-name="Layer 1" xmlns="http://www.w3.org/2000/svg" xmlns:xlink="http://www.w3.org/1999/xlink" viewBox="0 0 813.09 217.59"><defs><style>.cls-1{fill:url(#linear-gradient);}.cls-2{fill:url(#linear-gradient-2);}.cls-3{fill:url(#linear-gradient-3);}.cls-4{fill:url(#linear-gradient-4);}.cls-5{fill:url(#linear-gradient-5);}.cls-6{fill:url(#linear-gradient-6);}.cls-7{fill:#fff;}.cls-8{fill:#8bc642;}.cls-9{fill:#4bbcec;}.cls-10{fill:#818385;}.cls-11{fill:#020202;}</style><linearGradient id="linear-gradient" x1="-544.96" y1="564.4" x2="-439.96" y2="564.4" gradientTransform="matrix(0.74, -0.18, -0.29, -0.95, 767.9, 487.15)" gradientUnits="userSpaceOnUse"><stop offset="0" stop-color="#fff"/><stop offset="0.14" stop-color="#f7fcfe"/><stop offset="0.31" stop-color="#eaf4f8"/><stop offset="0.49" stop-color="#d1e7f2"/><stop offset="0.67" stop-color="#b1d9eb"/><stop offset="0.86" stop-color="#85c8e3"/><stop offset="1" stop-color="#5cbcdd"/></linearGradient><linearGradient id="linear-gradient-2" x1="-1116.97" y1="670.08" x2="-1011.98" y2="670.08" gradientTransform="matrix(-0.74, -0.18, 0.29, -0.95, -929.78, 487.15)" xlink:href="#linear-gradient"/><linearGradient id="linear-gradient-3" x1="143.67" y1="331.57" x2="128" y2="455.9" gradientTransform="matrix(1, 0, 0, -1, 0, 546.14)" gradientUnits="userSpaceOnUse"><stop offset="0" stop-color="#f4c14c"/><stop offset="0.14" stop-color="#f3b346"/><stop offset="0.43" stop-color="#ef8f3b"/><stop offset="0.83" stop-color="#eb552b"/><stop offset="1" stop-color="#e92c2a"/></linearGradient><linearGradient id="linear-gradient-4" x1="228.11" y1="469.67" x2="269.11" y2="534.34" gradientTransform="matrix(0.97, 0.24, 0.24, -0.97, -162.36, 490.88)" gradientUnits="userSpaceOnUse"><stop offset="0" stop-color="#93ae3c"/><stop offset="0.2" stop-color="#81a350"/><stop offset="0.62" stop-color="#548c7e"/><stop offset="1" stop-color="#057b9e"/></linearGradient><linearGradient id="linear-gradient-5" x1="57.6" y1="433" x2="131.07" y2="420.05" gradientTransform="matrix(1, 0, 0, -1, 0, 546.14)" gradientUnits="userSpaceOnUse"><stop offset="0" stop-color="#5e3292"/><stop offset="0.63" stop-color="#b6428a"/><stop offset="1" stop-color="#ef5185"/></linearGradient><linearGradient id="linear-gradient-6" x1="43.76" y1="502.34" x2="252.96" y2="502.34" gradientTransform="matrix(1, 0, 0, -1, 0, 546.14)" gradientUnits="userSpaceOnUse"><stop offset="0" stop-color="#51bfd9"/><stop offset="0.45" stop-color="#2c499b"/><stop offset="0.5" stop-color="#2d4c9d"/><stop offset="0.58" stop-color="#2f56a3"/><stop offset="0.68" stop-color="#3467ab"/><stop offset="0.79" stop-color="#3c7fb9"/><stop offset="0.91" stop-color="#45a0ca"/><stop offset="1" stop-color="#51bfd9"/></linearGradient></defs><path class="cls-1" d="M240,65.93s10.7-3.43,18.4-11c2.56-2.52,4.53-5.26,2.91-7.64-2.62-3.82-10.61-6.75-10.61-6.75L207.64,22.57,188.07,15l62.57,18.66,14.14,4.73s26.89,8.87,14.77,16.75a51.7,51.7,0,0,1-11.65,5.32C261.4,62.64,254.17,63.84,240,65.93Z" transform="translate(-12.08 -8.3)"/><path class="cls-2" d="M54.76,65.93s-10.7-3.43-18.4-11c-2.56-2.52-4.53-5.26-2.91-7.64,2.62-3.82,10.61-6.75,10.61-6.75L87.11,22.57,106.68,15,44.12,33.65,30,38.38S3.09,47.25,15.21,55.13a51.7,51.7,0,0,0,11.65,5.32C33.36,62.64,40.59,63.84,54.76,65.93Z" transform="translate(-12.08 -8.3)"/><path class="cls-3" d="M109.93,219.8s16,13,41,1,24-33,24-33c-1-14-5.56-20.5-14.09-31-4.91-6-49.11-60.54-53.93-70.46-5.19-10.69-7.73-23.31,2.85-31.06,0,0-15.33,8.5-16.58,18s-.83,9.5-.83,9.5l39.58,104v15S124.93,218.8,109.93,219.8Z" transform="translate(-12.08 -8.3)"/><path class="cls-4" d="M231.34,29.6c24.25,12.26,18.71,15.74,16.09,24.7-3.33,11.35-7,23-7,23s-27.05,18.3-67.15,17.41c-1.29,0-8.68.18-9.48-3.34-1-4.36,7.34-4.38,12.63-5.62a109.15,109.15,0,0,0,27.29-10.38,50.64,50.64,0,0,0,15.21-11.73c4.34-5.12,2.6-8,.66-11.16-1.47-2.42-7.41-7.43-15.83-11.06-1.74-.75-3.7-1.67-5.59-2.39C169.7,28.16,176.36,1.8,231.34,29.6Z" transform="translate(-12.08 -8.3)"/><path class="cls-5" d="M130.93,203.8s6-9-1-27l-14-36-13-31s-12-32-4-43,14-14,14-14,5-4,15-5c0,0-56-5-77,31,0,0,7,15,23,36s50.45,61.28,54,71A48.59,48.59,0,0,1,130.93,203.8Z" transform="translate(-12.08 -8.3)"/><path class="cls-6" d="M50.93,79.3s-13-19.16-4-40.73,59-27.55,59-27.55,56-9.58,116,7.19c10.29,2.87,16.41,5.73,21,9.58a28.48,28.48,0,0,1,9,13.18c5.18,17.17-11,35.83-11,35.83s-3.94-12.06-21-19c-38-15.57-92-10-92-10S63.93,50.8,50.93,79.3Z" transform="translate(-12.08 -8.3)"/><path class="cls-7" d="M106.76,86.39s1.29,3.07-1.55,6.93a7.11,7.11,0,0,1-4.57,3,34.89,34.89,0,0,1-8.73.22L63.42,94.38,50.9,93.21l36,5.51,8.5,1.08s16.08,2.09,17.55-2.67a5.86,5.86,0,0,0-.24-3.85C112,91.39,110.27,89.67,106.76,86.39Z" transform="translate(-12.08 -8.3)"/><path class="cls-7" d="M137.76,127.39s1.29,3.07-1.55,6.93a7.11,7.11,0,0,1-4.57,3,34.89,34.89,0,0,1-8.73.22l-28.49-2.15L81.9,134.21l36,5.51,8.5,1.08s16.08,2.09,17.55-2.67a5.86,5.86,0,0,0-.24-3.85C143,132.39,141.27,130.67,137.76,127.39Z" transform="translate(-12.08 -8.3)"/><path class="cls-7" d="M169.76,169.39s1.29,3.07-1.55,6.93a7.11,7.11,0,0,1-4.57,3,34.89,34.89,0,0,1-8.73.22l-28.49-2.15-12.52-1.17,36,5.51,8.5,1.08s16.08,2.09,17.55-2.67a5.86,5.86,0,0,0-.24-3.85C175,174.39,173.27,172.67,169.76,169.39Z" transform="translate(-12.08 -8.3)"/><path class="cls-8" d="M173.43,86.3s36-4,50-27l-2-1S214.8,75.55,173.43,86.3Z" transform="translate(-12.08 -8.3)"/><path class="cls-9" d="M51.43,78.3s-2,0-1-3c4-12,33-27,84-30,18.55-1.09,36.69-.65,54,2,15.62,2.39,30.67,6.46,43,15,9.37,6.49,9.5,13.5,9.5,13.5s-5.44-11.51-22.5-18.5c-38-15.57-90-9-90-9S61.43,52.3,51.43,78.3Z" transform="translate(-12.08 -8.3)"/><path class="cls-10" d="M302.41,91.41a9.49,9.49,0,0,1-5.31-1.77,23,23,0,0,1-4.78-4.27,22.64,22.64,0,0,1-3.38-5.14,10.87,10.87,0,0,1-1.26-4.57q0-3.69,3.16-9a74.37,74.37,0,0,1,8.33-11.13A129.92,129.92,0,0,1,310.89,44a126.15,126.15,0,0,1,13.4-10.31,84.42,84.42,0,0,1,13.33-7.37A29.39,29.39,0,0,1,349,23.5c1.76,0,3.6,1,5.53,2.88a41,41,0,0,1,5.24,6.54,44.43,44.43,0,0,1,3.84,7.37,16.61,16.61,0,0,1,1.47,5.16c0,3.72-.19,8.17-.58,13.26s-.89,10.43-1.47,16-1.23,11.13-1.91,16.71-1.33,10.74-1.91,15.48-1.08,8.79-1.47,12.21-.58,5.75-.58,6.93a12.56,12.56,0,0,0,1.11,5.82c.72,1.43,1.59,2.13,2.58,2.13.68,0,2.27-1.67,4.71-5a143.24,143.24,0,0,0,8.41-13.11q4.71-8.12,10-18.57T393.69,76A190.89,190.89,0,0,0,401,54.58a71.81,71.81,0,0,0,2.88-18.71,14.53,14.53,0,0,0-.75-4.71,15.1,15.1,0,0,1-.75-2.66,5.57,5.57,0,0,1,1.4-3.52,4.1,4.1,0,0,1,3.31-1.77,30.74,30.74,0,0,1,6.18.73A26.11,26.11,0,0,1,420,26.3a17.25,17.25,0,0,1,5.46,4.42,10.4,10.4,0,0,1,2.29,6.79q0,9.7-4.13,22.46a190.12,190.12,0,0,1-10.74,26.08A292.25,292.25,0,0,1,398,112.27a274.21,274.21,0,0,1-16.21,23.06,121.22,121.22,0,0,1-15.16,16.35c-4.76,4.13-8.62,6.18-11.57,6.18a16.43,16.43,0,0,1-6.93-1.62,19.21,19.21,0,0,1-6.4-4.85A27.23,27.23,0,0,1,337,143.3a31.21,31.21,0,0,1-1.91-11.49c0-3.72.24-8.31.75-13.7s1.06-11.71,1.69-18.93,1.26-15.31,1.84-24.31.94-19,1-30A74.41,74.41,0,0,0,328.32,50a119.59,119.59,0,0,0-12.89,7.8,70.13,70.13,0,0,0-10.32,8.62c-2.8,2.9-4.2,5.39-4.2,7.44a5.81,5.81,0,0,0,1.4,4.06q1.43,1.55,4.93,1.54a6,6,0,0,0,2.58-.58,12.57,12.57,0,0,0,2.3-1.33L314,76.27a2.47,2.47,0,0,1,1.26-.58c1,0,1.47.29,1.47.89a9.67,9.67,0,0,1-1.25,3.16,31.23,31.23,0,0,1-3.31,5,31.84,31.84,0,0,1-4.57,4.64A8.62,8.62,0,0,1,302.41,91.41Z" transform="translate(-12.08 -8.3)"/><path class="cls-10" d="M415.25,136.49a64.64,64.64,0,0,1,2.13-15q2.13-8.61,4.78-17.38t4.78-16.57a49.42,49.42,0,0,0,2.13-12.36,6.06,6.06,0,0,1,1.25-3.84,4.61,4.61,0,0,1,3.91-1.62,32.24,32.24,0,0,1,5.24.51,26.29,26.29,0,0,1,5.68,1.62,15.77,15.77,0,0,1,4.56,2.8,5.37,5.37,0,0,1,1.91,4.2,31.08,31.08,0,0,1-1.4,7.94c-.94,3.34-2,6.91-3.31,10.68s-2.63,7.6-4.06,11.49-2.65,7.41-3.67,10.6a69.93,69.93,0,0,0-2.12,7.73c-.39,1.95-.19,2.94.58,2.94q2.06,0,5.46-3.23c2.27-2.15,4.61-4.54,7.07-7.15s4.78-5,7-7.15,4-3.23,5.24-3.23a6.78,6.78,0,0,1,1.91.36c.8.24,1.18.6,1.18,1.11a14.8,14.8,0,0,1-1.54,4.49,75.7,75.7,0,0,1-4.27,8c-1.82,3-4,6.13-6.4,9.41a75.57,75.57,0,0,1-8,9.06,51.51,51.51,0,0,1-8.76,6.86,17.41,17.41,0,0,1-9.06,2.73,11.76,11.76,0,0,1-8.84-3.53C416.39,145.62,415.25,141.78,415.25,136.49Zm43.3-80.44c-1.38,4-3.45,6.79-6.25,8.26a12.85,12.85,0,0,1-8.19,1.55,10,10,0,0,1-6.4-3.67c-1.62-2-2-4.59-1.11-7.73.8-2.75,1.38-4.88,1.76-6.4s.65-2.78.82-3.74a16.13,16.13,0,0,0,.22-2.8V38.14a6,6,0,0,1,1.26-3.92,4.72,4.72,0,0,1,3.91-1.54,32.34,32.34,0,0,1,5.24.51,29.49,29.49,0,0,1,5.67,1.54,14.51,14.51,0,0,1,4.57,2.8,5.46,5.46,0,0,1,1.9,4.13v2.8a9.17,9.17,0,0,1-.36,2.37c-.24.89-.58,2-1,3.38S459.44,53.49,458.55,56.05Z" transform="translate(-12.08 -8.3)"/><path class="cls-10" d="M502.16,40.14a6.08,6.08,0,0,1,4.78,2.37,20.22,20.22,0,0,1,3.31,5.6,31.59,31.59,0,0,1,1.91,6.54,32.94,32.94,0,0,1,.58,5.24,7.86,7.86,0,0,1-.36,2.44c-.25.73-.92,1.11-2,1.11a.92.92,0,0,1-1-.65,3.43,3.43,0,0,0-1.33-1.47,11.36,11.36,0,0,0-4-1.47,43.12,43.12,0,0,0-8.91-.68h-1c-1.86,6.08-3.86,12.68-6,19.73s-4.08,13.81-5.89,20.26-3.34,12.14-4.57,17.17a51.89,51.89,0,0,0-1.83,10.6,7.92,7.92,0,0,0,.65,3.77,2.19,2.19,0,0,0,2,1.11c1.38,0,3.23-1.09,5.6-3.24s4.78-4.54,7.29-7.15,4.88-5,7.15-7.15,4-3.23,5.31-3.23a6.41,6.41,0,0,1,2,.36c.75.24,1.11.6,1.11,1.11a14.8,14.8,0,0,1-1.54,4.49,75.7,75.7,0,0,1-4.27,8c-1.82,3-4,6.13-6.4,9.42a76.25,76.25,0,0,1-7.95,9,49.72,49.72,0,0,1-8.84,6.86,17.5,17.5,0,0,1-9,2.73q-16,0-16.06-13.55a101.64,101.64,0,0,1,1.62-16.71q1.64-9.63,4.13-20.33t5.46-21.59c1.95-7.27,3.84-14,5.6-20.33h-4.13a3.57,3.57,0,0,1-3.77-2.59,11,11,0,0,1-.07-5.74,15.62,15.62,0,0,1,2.58-5.75,5.31,5.31,0,0,1,4.35-2.58c.68,0,1.52,0,2.51-.08s2.05-.12,3.24-.21c1-3.75,1.76-6.93,2.36-9.59a31.47,31.47,0,0,0,.9-6A3.7,3.7,0,0,1,479,24.76a4.63,4.63,0,0,1,2.88-1,27.75,27.75,0,0,1,5.14.65,44.72,44.72,0,0,1,6.4,1.84,20.83,20.83,0,0,1,5.46,2.95,5.16,5.16,0,0,1,2.29,4.13,16.06,16.06,0,0,1-.36,2.58,43.69,43.69,0,0,1-1.11,4.35,7.33,7.33,0,0,1,1.47-.15Z" transform="translate(-12.08 -8.3)"/><path class="cls-10" d="M548.26,68.13a9.21,9.21,0,0,1,4.71,1,12.13,12.13,0,0,1,2.94,2.36,11.69,11.69,0,0,1,5.15-1.47,30.15,30.15,0,0,1,3.31.22,13.82,13.82,0,0,1,3.91,1,8.88,8.88,0,0,1,3.23,2.29,5.48,5.48,0,0,1,1.33,3.84,30.35,30.35,0,0,1-1.47,8c-1,3.41-2.2,7.05-3.6,11s-2.92,7.89-4.49,11.88-2.95,7.61-4.13,10.84a83.25,83.25,0,0,0-2.51,8c-.48,2.08-.39,3.09.29,3.09,1.37,0,3.21-1.09,5.53-3.24s4.71-4.51,7.22-7.07,4.85-4.9,7.07-7.08,4-3.23,5.24-3.23a6.78,6.78,0,0,1,1.91.36c.8.24,1.18.6,1.18,1.11a14.8,14.8,0,0,1-1.54,4.49,75.7,75.7,0,0,1-4.27,8c-1.82,3-4,6.13-6.4,9.39a75.26,75.26,0,0,1-8,9,48.91,48.91,0,0,1-8.84,6.81,17.45,17.45,0,0,1-9,2.7,12.65,12.65,0,0,1-8.4-2.63c-2.06-1.76-3.09-4.64-3.09-8.62a32,32,0,0,1,.89-7,55.18,55.18,0,0,1-11.64,11.18,23.79,23.79,0,0,1-14,4.45q-7.5,0-11.86-3.46a16.81,16.81,0,0,1-5.82-9.12,32.73,32.73,0,0,1-.43-13,59.08,59.08,0,0,1,4.2-14.8,78.57,78.57,0,0,1,8.33-14.81,71.36,71.36,0,0,1,11.78-13,56.68,56.68,0,0,1,14.59-9.13A41.38,41.38,0,0,1,548.26,68.13Zm-32.41,62.3c1.28,0,3.07-1.11,5.39-3.33a79.79,79.79,0,0,0,7.44-8.43q4-5.11,8-11.23c2.71-4.08,5.15-8,7.37-11.9a111,111,0,0,0,5.38-10.41c1.38-3.12,2.06-5.34,2.06-6.71v-.29a9.11,9.11,0,0,0-2.23-.29c-2.94,0-6,1.3-9.12,3.91A58.72,58.72,0,0,0,531,91.5a104.61,104.61,0,0,0-8.19,12.63,97.86,97.86,0,0,0-6,12.63,41.63,41.63,0,0,0-2.66,9.76C514,129.13,514.48,130.43,515.85,130.43Z" transform="translate(-12.08 -8.3)"/><path class="cls-10" d="M623,109.08a6.62,6.62,0,0,1,1.91.37c.79.24,1.18.6,1.18,1.11a15,15,0,0,1-1.55,4.49,72.9,72.9,0,0,1-4.27,7.94c-1.81,3-4,6.14-6.4,9.42a79,79,0,0,1-7.94,9.06,49.54,49.54,0,0,1-8.84,6.85,17.53,17.53,0,0,1-9,2.73,17.23,17.23,0,0,1-6-1,17,17,0,0,1-5.17-2.94,13.54,13.54,0,0,1-3.6-4.78,15.39,15.39,0,0,1-1.32-6.55,117.11,117.11,0,0,1,1.54-17.6c1-6.74,2.32-13.74,3.84-21.06s3.16-14.66,4.93-22,3.4-14.22,4.92-20.55S590,42.68,591.07,38a52.64,52.64,0,0,0,1.55-10.1A3.58,3.58,0,0,1,594,24.76a5,5,0,0,1,2.94-1,26.65,26.65,0,0,1,5.07.65,40.71,40.71,0,0,1,6.19,1.84,20.35,20.35,0,0,1,5.24,2.95,5.22,5.22,0,0,1,2.22,4.13,33.16,33.16,0,0,1-.9,5.53c-.58,2.8-1.35,6.2-2.29,10.23s-2,8.53-3.24,13.48-2.51,10.07-3.84,15.31-2.6,10.45-3.83,15.62-2.32,10-3.24,14.37-1.69,8.33-2.29,11.71a50.54,50.54,0,0,0-.9,7.58c0,1.38.2,2.18.58,2.37a4.21,4.21,0,0,0,1.76.29c1.38,0,3.24-1.09,5.61-3.24s4.78-4.54,7.29-7.14,4.9-5,7.22-7.15S621.67,109.08,623,109.08Z" transform="translate(-12.08 -8.3)"/><path class="cls-10" d="M611.16,136.49a64.64,64.64,0,0,1,2.13-15q2.13-8.61,4.78-17.38t4.78-16.57A49.42,49.42,0,0,0,625,75.23a6.06,6.06,0,0,1,1.25-3.84,4.61,4.61,0,0,1,3.91-1.62,32.14,32.14,0,0,1,5.24.51,26.29,26.29,0,0,1,5.68,1.62,15.77,15.77,0,0,1,4.56,2.8,5.37,5.37,0,0,1,1.91,4.2,31.08,31.08,0,0,1-1.4,7.94c-.94,3.34-2,6.91-3.31,10.68s-2.63,7.6-4.05,11.49-2.66,7.41-3.68,10.6a72.25,72.25,0,0,0-2.12,7.73c-.39,1.95-.19,2.94.58,2.94,1.38,0,3.19-1.08,5.46-3.23s4.61-4.54,7.07-7.15,4.78-5,7-7.15,4-3.23,5.25-3.23a6.78,6.78,0,0,1,1.9.36c.8.24,1.19.6,1.19,1.11a14.93,14.93,0,0,1-1.55,4.49,75.7,75.7,0,0,1-4.27,8c-1.81,3-4,6.13-6.4,9.41a75.57,75.57,0,0,1-8,9.06,51.51,51.51,0,0,1-8.76,6.86,17.41,17.41,0,0,1-9.06,2.73,11.76,11.76,0,0,1-8.84-3.53C612.28,145.62,611.16,141.78,611.16,136.49Zm43.3-80.44c-1.38,4-3.45,6.79-6.25,8.26A12.84,12.84,0,0,1,640,65.86a10,10,0,0,1-6.4-3.67c-1.62-2-2-4.59-1.11-7.73.8-2.75,1.38-4.88,1.76-6.4s.66-2.78.82-3.74a16.13,16.13,0,0,0,.22-2.8V38.14a6,6,0,0,1,1.26-3.92,4.72,4.72,0,0,1,3.91-1.54,32.34,32.34,0,0,1,5.24.51,29.49,29.49,0,0,1,5.67,1.54,14.51,14.51,0,0,1,4.57,2.8,5.47,5.47,0,0,1,1.91,4.13v2.8a8.81,8.81,0,0,1-.37,2.37c-.24.89-.58,2-1,3.38S655.35,53.49,654.46,56.05Z" transform="translate(-12.08 -8.3)"/><path class="cls-10" d="M734.44,73.88a68.61,68.61,0,0,1-.65,7.22c-.44,3.42-1.09,7.55-1.91,12.36s-1.81,10.17-3,16.06-2.44,12-3.91,18.25a96.71,96.71,0,0,0,7.73-7,55.08,55.08,0,0,0,6.54-7.87,5.88,5.88,0,0,1,3-2.37,3.57,3.57,0,0,1,3.31.15,3.23,3.23,0,0,1,1.26,2.87,9.37,9.37,0,0,1-.51,3.62,43.59,43.59,0,0,1-10.17,15.31,126.67,126.67,0,0,1-15.91,13.69c-2,7.08-4,13.84-6.18,20.34a161.31,161.31,0,0,1-6.79,17.24A54.61,54.61,0,0,1,700,195.68c-2.51,2.94-5,4.42-7.58,4.42a40.33,40.33,0,0,1-11.64-1.62,32.44,32.44,0,0,1-9.49-4.49,20.74,20.74,0,0,1-6.33-7,18.54,18.54,0,0,1-2.29-9.12,14.84,14.84,0,0,1,2.94-8.7,39.71,39.71,0,0,1,7.87-8,97.74,97.74,0,0,1,11.43-7.73q6.48-3.84,13.54-7.95c1.38-5.6,2.71-11.08,4-16.49s2.36-10.21,3.23-14.44a136.12,136.12,0,0,1-6.85,12,87,87,0,0,1-9.13,12,49.46,49.46,0,0,1-11.13,9.28,24.26,24.26,0,0,1-12.83,3.69,19.31,19.31,0,0,1-7.87-1.4,11.93,11.93,0,0,1-5.07-4.13,17,17,0,0,1-2.66-6.64,48.68,48.68,0,0,1-.72-8.77A43.33,43.33,0,0,1,651.27,119a76.78,76.78,0,0,1,5.32-13.48,88.18,88.18,0,0,1,8.47-13.62A68.7,68.7,0,0,1,676.41,80a57.82,57.82,0,0,1,13.91-8.47,40.77,40.77,0,0,1,16.13-3.24,11.1,11.1,0,0,1,3.31.44,11.45,11.45,0,0,1,2.58,1.18c.49-1.18.87-2.1,1.11-2.8a5.44,5.44,0,0,0,.37-1.33c0-1.57,1.08-2.34,3.23-2.29A21.89,21.89,0,0,1,724.13,65a28.17,28.17,0,0,1,7.07,4C733.35,70.69,734.44,72.31,734.44,73.88Zm-27,4c-2.27,0-4.93,1.38-8,4.13a75.1,75.1,0,0,0-9.41,10.31A132.84,132.84,0,0,0,681,105.7a121.22,121.22,0,0,0-6.93,13.4,31.79,31.79,0,0,0-2.87,10.32c-.15,2.75.87,4.12,3,4.12q2.35,0,5.32-2.72a47.28,47.28,0,0,0,6.18-7.3,110.78,110.78,0,0,0,6.47-10.38c2.15-3.89,4.27-7.87,6.33-12s4-8.19,5.82-12.22,3.4-7.66,4.78-10.89a5.33,5.33,0,0,1-.82-.07A2.54,2.54,0,0,0,707.49,77.86ZM678.9,176.41a5,5,0,0,0,1.69,3.38,5.12,5.12,0,0,0,3.77,1.76c1.28,0,2.65-1.59,4.13-4.78a121.89,121.89,0,0,0,4.7-12.29c-4.22,2.75-7.65,5.09-10.31,7.07S678.9,175.13,678.9,176.41Z" transform="translate(-12.08 -8.3)"/><path class="cls-10" d="M802.2,72c3.23,0,5.6.84,7.07,2.51A10.71,10.71,0,0,1,811.78,81a31.45,31.45,0,0,1-.89,9.28,105.66,105.66,0,0,1-3,10.6Q806,106.29,804,111.5l-3.67,9.27a61.26,61.26,0,0,0-2.29,6.54c-.44,1.67-.32,2.52.36,2.52,1.37,0,3.14-1.07,5.31-3.17s4.35-4.46,6.54-7.07,4.35-5,6.4-7.08,3.72-3.16,5-3.16a7.49,7.49,0,0,1,2.22.43c.9.29,1.33.7,1.33,1.19a15,15,0,0,1-1.47,4.42,82.71,82.71,0,0,1-4.06,7.87c-1.71,3-3.74,6.13-6,9.42a73.18,73.18,0,0,1-7.51,9,46.33,46.33,0,0,1-8.48,6.86,16.79,16.79,0,0,1-8.84,2.73c-3.62,0-6.47-.9-8.55-2.66S777,144,776.84,140a43.72,43.72,0,0,1,.65-10c.63-3.63,1.45-7.27,2.44-10.89s2-7.13,3.17-10.46,2.07-6.28,2.87-8.84,1.35-4.61,1.69-6.18.22-2.37-.36-2.37c-1.38,0-3.07,1-5.07,3a57.49,57.49,0,0,0-6.4,7.65c-2.27,3.14-4.54,6.69-6.86,10.61a120.56,120.56,0,0,0-6.18,11.92,102.2,102.2,0,0,0-4.42,11.5,32,32,0,0,0-1.69,9.27,6,6,0,0,0,.82,3.6,3.37,3.37,0,0,1,.8,1.69,2.26,2.26,0,0,1-.73,1.62,2.59,2.59,0,0,1-1.9.72,21,21,0,0,1-4.06-1,50.86,50.86,0,0,1-7.08-2.87,34.47,34.47,0,0,1-6.78-4.35,7.61,7.61,0,0,1-3.17-5.45,55.19,55.19,0,0,1,.9-9.81c.7-4.47,1.66-9.44,2.94-15s2.78-11.15,4.5-16.92,3.47-11.09,5.31-15.92a71.25,71.25,0,0,1,5.53-11.85q2.79-4.64,5.14-4.64a37.44,37.44,0,0,1,5,.44,32.26,32.26,0,0,1,6,1.47A20.09,20.09,0,0,1,775,69.43a5.18,5.18,0,0,1,2.29,3.91,10.13,10.13,0,0,1-.89,3c-.61,1.47-1.33,3.28-2.22,5.46s-1.86,4.51-3,7.07-2.12,5.12-3.09,7.66q3.23-4.28,7.15-8.7a69.17,69.17,0,0,1,8.26-7.94,43.44,43.44,0,0,1,9.05-5.75A23.48,23.48,0,0,1,802.2,72Z" transform="translate(-12.08 -8.3)"/><path class="cls-11" d="M347.93,184.71v-3a1.82,1.82,0,0,0-2-2.08h-.72c-1.33,0-2,.7-2,2.08v5.75a1.65,1.65,0,0,0,.38,1.3,12.49,12.49,0,0,0,1.26.87l4.39,2.37a20,20,0,0,1,2.06,1.28,3.12,3.12,0,0,1,.94,1.11,6.34,6.34,0,0,1,.34,2.49v7.39c0,3.88-1.86,5.84-5.61,5.84h-2.85c-3.69,0-5.55-2.13-5.55-6.38V202h4.64v1.88a1.82,1.82,0,0,0,2.07,2h.82c1.24,0,1.84-.68,1.84-2V198a1.64,1.64,0,0,0-.39-1.31,14.57,14.57,0,0,0-1.25-.87l-4.4-2.46a13.59,13.59,0,0,1-2.1-1.3,3.1,3.1,0,0,1-.94-1.38,7,7,0,0,1-.29-2.2v-7.1c0-4,1.86-5.94,5.55-5.94H347c3.7,0,5.56,2,5.56,5.94v3.38Z" transform="translate(-12.08 -8.3)"/><path class="cls-11" d="M368.5,175.39H377c3.75,0,5.61,2,5.61,5.94v10.29c0,3.94-1.86,5.89-5.56,5.89h-3.86v12.56H368.5Zm4.64,17.92h2.95c1.23,0,1.83-.68,1.83-2v-9.66a1.82,1.82,0,0,0-2.08-2h-2.7Z" transform="translate(-12.08 -8.3)"/><path class="cls-11" d="M398.3,210.07V175.39h4.64v34.68Z" transform="translate(-12.08 -8.3)"/><path class="cls-11" d="M429,192.15V175.39h4.64v34.68H429v-6.91l-5-15.79v22.7h-4.63V175.39H424Z" transform="translate(-12.08 -8.3)"/><path class="cls-11" d="M450,210.07V175.39h11.49v4.2h-6.86v10.53h6.09v4.2h-6.09v11.55h6.86v4.2Z" transform="translate(-12.08 -8.3)"/><path class="cls-11" d="M510.59,202v2.22c0,3.93-1.86,5.89-5.56,5.89h-3c-3.69,0-5.55-2-5.55-5.89V181.29c0-3.94,1.86-5.9,5.55-5.9h3c3.7,0,5.56,2,5.56,5.9v3.91H506v-3.58a1.82,1.82,0,0,0-2.07-2H503c-1.23,0-1.84.68-1.84,2v22.22c0,1.35.61,2,1.84,2h1.16c1.23,0,1.83-.68,1.83-2V202Z" transform="translate(-12.08 -8.3)"/><path class="cls-11" d="M537.3,210.07h-11V175.39h4.64v30.48h6.38Z" transform="translate(-12.08 -8.3)"/><path class="cls-11" d="M552,210.07V175.39h4.63v34.68Z" transform="translate(-12.08 -8.3)"/><path class="cls-11" d="M582.67,192.15V175.39h4.64v34.68h-4.64v-6.91l-5-15.79v22.7h-4.64V175.39h4.64Z" transform="translate(-12.08 -8.3)"/><path class="cls-11" d="M603.73,210.07V175.39h4.63v34.68Z" transform="translate(-12.08 -8.3)"/><path class="cls-11" d="M638.64,202v2.22q0,5.9-5.55,5.89h-3c-3.7,0-5.56-2-5.56-5.89V181.29c0-3.94,1.86-5.9,5.56-5.9h3c3.7,0,5.55,2,5.55,5.9v3.91H634v-3.58a1.82,1.82,0,0,0-2.08-2H631c-1.23,0-1.83.68-1.83,2v22.22c0,1.35.6,2,1.83,2h1.16c1.23,0,1.84-.68,1.84-2V202Z" transform="translate(-12.08 -8.3)"/></svg>