<?xml version="1.0" encoding="utf-8"?>
<!-- Generator: Adobe Illustrator 25.1.0, SVG Export Plug-In . SVG Version: 6.00 Build 0)  -->
<svg version="1.1" id="Layer_1" xmlns="http://www.w3.org/2000/svg" xmlns:xlink="http://www.w3.org/1999/xlink" x="0px" y="0px"
	 viewBox="0 0 272.36 295.6" style="enable-background:new 0 0 272.36 295.6;" xml:space="preserve">
<style type="text/css">
	.st0{fill:url(#SVGID_1_);}
	.st1{fill:url(#SVGID_2_);}
	.st2{fill:url(#SVGID_3_);}
	.st3{fill:url(#SVGID_4_);}
	.st4{fill:url(#SVGID_5_);}
	.st5{fill:url(#SVGID_6_);}
	.st6{fill:#FFFFFF;}
	.st7{fill:#89C541;}
	.st8{fill:#48BCEC;}
	.st9{fill:#818285;}
	.st10{fill:#010101;}
</style>
<linearGradient id="SVGID_1_" gradientUnits="userSpaceOnUse" x1="-505.927" y1="-22.6734" x2="-400.9254" y2="-22.6734" gradientTransform="matrix(0.7443 -0.1761 0.2923 0.9532 569.0159 -29.9623)">
	<stop  offset="0" style="stop-color:#FFFFFF"/>
	<stop  offset="0.1446" style="stop-color:#F8FBFD"/>
	<stop  offset="0.3108" style="stop-color:#E9F3F8"/>
	<stop  offset="0.4877" style="stop-color:#D1E8F2"/>
	<stop  offset="0.672" style="stop-color:#B0D9EB"/>
	<stop  offset="0.8602" style="stop-color:#85C8E3"/>
	<stop  offset="1" style="stop-color:#5ABBDD"/>
</linearGradient>
<path class="st0" d="M228.51,58.32c0,0,10.7-3.43,18.4-11.03c2.56-2.52,4.53-5.26,2.91-7.64c-2.62-3.82-10.61-6.75-10.61-6.75
	l-43.05-17.94l-19.57-7.57l62.57,18.66l14.14,4.73c0,0,26.89,8.87,14.77,16.75c-3.65,2.38-7.81,4.02-11.65,5.32
	C249.92,55.03,242.69,56.23,228.51,58.32z"/>
<linearGradient id="SVGID_2_" gradientUnits="userSpaceOnUse" x1="-1081.6619" y1="-129.0267" x2="-976.6603" y2="-129.0267" gradientTransform="matrix(-0.7443 -0.1761 -0.2923 0.9532 -756.8268 -29.9623)">
	<stop  offset="0" style="stop-color:#FFFFFF"/>
	<stop  offset="0.1446" style="stop-color:#F8FBFD"/>
	<stop  offset="0.3108" style="stop-color:#E9F3F8"/>
	<stop  offset="0.4877" style="stop-color:#D1E8F2"/>
	<stop  offset="0.672" style="stop-color:#B0D9EB"/>
	<stop  offset="0.8602" style="stop-color:#85C8E3"/>
	<stop  offset="1" style="stop-color:#5ABBDD"/>
</linearGradient>
<path class="st1" d="M43.28,58.32c0,0-10.7-3.43-18.4-11.03c-2.56-2.52-4.53-5.26-2.91-7.64c2.62-3.82,10.61-6.75,10.61-6.75
	l43.05-17.94l19.57-7.57L32.64,26.04L18.5,30.77c0,0-26.89,8.87-14.77,16.75c3.65,2.38,7.81,4.02,11.65,5.32
	C21.88,55.03,29.11,56.23,43.28,58.32z"/>
<linearGradient id="SVGID_3_" gradientUnits="userSpaceOnUse" x1="132.1797" y1="206.961" x2="116.513" y2="82.6276">
	<stop  offset="0" style="stop-color:#F4C14C"/>
	<stop  offset="0.1406" style="stop-color:#F3B347"/>
	<stop  offset="0.4269" style="stop-color:#EF8F3B"/>
	<stop  offset="0.8296" style="stop-color:#EB532C"/>
	<stop  offset="1" style="stop-color:#E92928"/>
</linearGradient>
<path class="st2" d="M98.45,212.19c0,0,16,13,41,1s24-33,24-33c-1-14-5.56-20.5-14.09-30.97c-4.91-6.03-49.11-60.54-53.93-70.46
	c-5.19-10.69-7.73-23.31,2.85-31.06c0,0-15.33,8.5-16.58,18s-0.83,9.5-0.83,9.5l39.58,104v15
	C120.45,194.19,113.45,211.19,98.45,212.19z"/>
<linearGradient id="SVGID_4_" gradientUnits="userSpaceOnUse" x1="185.6816" y1="72.2155" x2="226.6816" y2="7.5488" gradientTransform="matrix(0.9716 0.2367 -0.2367 0.9716 -4.355 -33.1826)">
	<stop  offset="0" style="stop-color:#93AE3C"/>
	<stop  offset="0.1955" style="stop-color:#82A351"/>
	<stop  offset="0.6215" style="stop-color:#548C7E"/>
	<stop  offset="1" style="stop-color:#017A9D"/>
</linearGradient>
<path class="st3" d="M219.86,21.99c24.25,12.26,18.71,15.74,16.09,24.7c-3.33,11.35-7,23-7,23S201.9,87.99,161.8,87.1
	c-1.29-0.03-8.68,0.18-9.48-3.34c-1-4.36,7.34-4.38,12.63-5.62c6.75-1.59,16.09-4.36,27.29-10.38c4.58-2.46,10.32-5.96,15.21-11.73
	c4.34-5.12,2.6-7.98,0.66-11.16c-1.47-2.42-7.41-7.43-15.83-11.06c-1.74-0.75-3.7-1.67-5.59-2.39
	C158.22,20.55,164.88-5.81,219.86,21.99z"/>
<linearGradient id="SVGID_5_" gradientUnits="userSpaceOnUse" x1="46.118" y1="105.5254" x2="119.5852" y2="118.4796">
	<stop  offset="0" style="stop-color:#5C3192"/>
	<stop  offset="0.6255" style="stop-color:#B54089"/>
	<stop  offset="1" style="stop-color:#EF4F84"/>
</linearGradient>
<path class="st4" d="M119.45,196.19c0,0,6-9-1-27s-14-36-14-36l-13-31c0,0-12-32-4-43s14-14,14-14s5-4,15-5c0,0-56-5-77,31
	c0,0,7,15,23,36s50.45,61.28,54,71C118.24,183.09,119.45,188.19,119.45,196.19z"/>
<linearGradient id="SVGID_6_" gradientUnits="userSpaceOnUse" x1="32.2736" y1="36.1908" x2="241.4704" y2="36.1908">
	<stop  offset="0" style="stop-color:#50BFD9"/>
	<stop  offset="0.447" style="stop-color:#2B469B"/>
	<stop  offset="0.5024" style="stop-color:#2C4A9D"/>
	<stop  offset="0.584" style="stop-color:#2E55A2"/>
	<stop  offset="0.6818" style="stop-color:#3266AB"/>
	<stop  offset="0.7921" style="stop-color:#3A7EB8"/>
	<stop  offset="0.9113" style="stop-color:#44A0CA"/>
	<stop  offset="1" style="stop-color:#50BFD9"/>
</linearGradient>
<path class="st5" d="M39.45,71.69c0,0-13-19.16-4-40.73s59-27.55,59-27.55s56-9.58,116,7.19c10.29,2.87,16.41,5.73,21,9.58
	s7.65,8.7,9,13.18c5.18,17.17-11,35.83-11,35.83s-3.94-12.06-21-19.05c-38-15.57-92-9.95-92-9.95S52.45,43.19,39.45,71.69z"/>
<path class="st6" d="M95.28,78.78c0,0,1.29,3.07-1.55,6.93c-0.94,1.28-2.25,2.53-4.57,2.99c-3.74,0.75-8.73,0.22-8.73,0.22
	l-28.49-2.15l-12.52-1.17l35.96,5.51l8.5,1.08c0,0,16.08,2.09,17.55-2.67c0.44-1.44,0.17-2.73-0.24-3.85
	C100.48,83.78,98.79,82.06,95.28,78.78z"/>
<path class="st6" d="M126.28,119.78c0,0,1.29,3.07-1.55,6.93c-0.94,1.28-2.25,2.53-4.57,2.99c-3.74,0.75-8.73,0.22-8.73,0.22
	l-28.49-2.15l-12.52-1.17l35.96,5.51l8.5,1.08c0,0,16.08,2.09,17.55-2.67c0.44-1.44,0.17-2.73-0.24-3.85
	C131.48,124.78,129.79,123.06,126.28,119.78z"/>
<path class="st6" d="M158.28,161.78c0,0,1.29,3.07-1.55,6.93c-0.94,1.28-2.25,2.53-4.57,2.99c-3.74,0.75-8.73,0.22-8.73,0.22
	l-28.49-2.15l-12.52-1.17l35.96,5.51l8.5,1.08c0,0,16.08,2.09,17.55-2.67c0.44-1.44,0.17-2.73-0.24-3.85
	C163.48,166.78,161.79,165.06,158.28,161.78z"/>
<path class="st7" d="M161.95,78.69c0,0,36-4,50-27l-2-1C209.95,50.69,203.32,67.94,161.95,78.69z"/>
<path class="st8" d="M39.95,70.69c0,0-2,0-1-3c4.01-12.02,33-27,84-30c18.55-1.09,36.69-0.65,54,2c15.62,2.39,30.67,6.46,43,15
	c9.37,6.49,9.5,13.5,9.5,13.5s-5.44-11.51-22.5-18.5c-38-15.57-90-9-90-9S49.95,44.69,39.95,70.69z"/>
<g>
	<g>
		<path class="st9" d="M25.58,245.11c-0.73,0-1.46-0.24-2.2-0.73c-0.73-0.49-1.39-1.08-1.98-1.77c-0.59-0.69-1.06-1.4-1.4-2.13
			c-0.35-0.73-0.52-1.36-0.52-1.89c0-1.02,0.44-2.26,1.31-3.72c0.87-1.46,2.02-3,3.45-4.61c1.42-1.61,3.04-3.2,4.85-4.79
			c1.81-1.59,3.66-3.01,5.55-4.27c1.89-1.26,3.73-2.28,5.52-3.05c1.79-0.77,3.35-1.16,4.7-1.16c0.73,0,1.49,0.4,2.29,1.19
			c0.79,0.79,1.51,1.7,2.17,2.71c0.65,1.02,1.18,2.03,1.59,3.05c0.41,1.02,0.61,1.73,0.61,2.14c0,1.54-0.08,3.38-0.24,5.49
			c-0.16,2.12-0.37,4.32-0.61,6.62c-0.24,2.3-0.51,4.61-0.79,6.92c-0.29,2.32-0.55,4.45-0.79,6.41c-0.24,1.95-0.45,3.64-0.61,5.06
			c-0.16,1.42-0.24,2.38-0.24,2.87c0,1.02,0.15,1.82,0.46,2.41c0.3,0.59,0.66,0.88,1.07,0.88c0.28,0,0.94-0.69,1.95-2.07
			c1.02-1.38,2.18-3.19,3.48-5.43c1.3-2.24,2.68-4.8,4.15-7.69c1.46-2.89,2.81-5.83,4.03-8.84c1.22-3.01,2.23-5.96,3.02-8.85
			c0.79-2.89,1.19-5.47,1.19-7.75c0-0.69-0.1-1.34-0.31-1.95c-0.2-0.61-0.31-0.98-0.31-1.1c0-0.49,0.19-0.98,0.58-1.46
			c0.39-0.49,0.84-0.73,1.37-0.73c0.73,0,1.59,0.1,2.56,0.3c0.98,0.2,1.9,0.53,2.78,0.98c0.87,0.45,1.63,1.06,2.26,1.83
			c0.63,0.77,0.95,1.71,0.95,2.81c0,2.68-0.57,5.78-1.71,9.3c-1.14,3.52-2.62,7.12-4.45,10.8c-1.83,3.68-3.87,7.3-6.13,10.86
			c-2.26,3.56-4.49,6.74-6.71,9.55c-2.22,2.81-4.31,5.06-6.28,6.77c-1.97,1.71-3.57,2.56-4.79,2.56c-0.94,0-1.89-0.22-2.87-0.67
			s-1.86-1.12-2.65-2.01c-0.79-0.9-1.45-2.01-1.98-3.35c-0.53-1.34-0.79-2.93-0.79-4.76c0-1.54,0.1-3.44,0.31-5.67
			c0.2-2.24,0.44-4.85,0.7-7.84c0.26-2.99,0.52-6.34,0.76-10.07c0.24-3.72,0.39-7.86,0.43-12.41c-1.46,0.45-3.13,1.16-5,2.13
			c-1.87,0.98-3.65,2.05-5.34,3.23c-1.69,1.18-3.11,2.37-4.27,3.57c-1.16,1.2-1.74,2.23-1.74,3.08c0,0.69,0.19,1.25,0.58,1.68
			c0.39,0.43,1.07,0.64,2.04,0.64c0.37,0,0.72-0.08,1.07-0.24c0.35-0.16,0.66-0.34,0.95-0.55c0.28-0.2,0.54-0.39,0.76-0.55
			c0.22-0.16,0.4-0.24,0.52-0.24c0.41,0,0.61,0.12,0.61,0.37c0,0.2-0.17,0.64-0.52,1.31c-0.35,0.67-0.8,1.36-1.37,2.07
			c-0.57,0.71-1.2,1.35-1.89,1.92C26.96,244.83,26.27,245.11,25.58,245.11z"/>
		<path class="st9" d="M72.31,263.78c0-1.75,0.3-3.81,0.88-6.19c0.59-2.38,1.25-4.78,1.98-7.2c0.73-2.42,1.39-4.71,1.98-6.86
			c0.59-2.15,0.88-3.86,0.88-5.12c0-0.61,0.17-1.14,0.52-1.59c0.35-0.45,0.88-0.67,1.62-0.67c0.61,0,1.33,0.07,2.17,0.21
			c0.83,0.14,1.62,0.37,2.35,0.67s1.36,0.69,1.89,1.16c0.53,0.47,0.79,1.05,0.79,1.74c0,0.81-0.19,1.91-0.58,3.29
			c-0.39,1.38-0.84,2.86-1.37,4.42c-0.53,1.57-1.09,3.15-1.68,4.76c-0.59,1.61-1.1,3.07-1.52,4.39c-0.43,1.32-0.72,2.39-0.88,3.2
			c-0.16,0.81-0.08,1.22,0.24,1.22c0.57,0,1.32-0.45,2.26-1.34c0.94-0.89,1.91-1.88,2.93-2.96c1.02-1.08,1.98-2.06,2.9-2.96
			s1.64-1.34,2.17-1.34c0.2,0,0.47,0.05,0.79,0.15c0.33,0.1,0.49,0.25,0.49,0.46c0,0.29-0.21,0.91-0.64,1.86
			c-0.43,0.96-1.02,2.05-1.77,3.29c-0.75,1.24-1.64,2.54-2.65,3.9c-1.02,1.36-2.11,2.61-3.29,3.75c-1.18,1.14-2.39,2.08-3.63,2.84
			c-1.24,0.75-2.49,1.13-3.75,1.13c-1.5,0-2.73-0.49-3.66-1.46C72.78,267.56,72.31,265.97,72.31,263.78z M90.24,230.47
			c-0.57,1.67-1.43,2.81-2.59,3.42c-1.16,0.61-2.29,0.82-3.39,0.64c-1.1-0.18-1.98-0.69-2.65-1.52c-0.67-0.83-0.82-1.9-0.46-3.2
			c0.33-1.14,0.57-2.02,0.73-2.65c0.16-0.63,0.27-1.15,0.34-1.55s0.09-0.79,0.09-1.16c0-0.37,0-0.83,0-1.4
			c0-0.65,0.17-1.19,0.52-1.62c0.35-0.43,0.88-0.64,1.62-0.64c0.61,0,1.33,0.07,2.17,0.21c0.83,0.14,1.62,0.36,2.35,0.64
			c0.73,0.29,1.36,0.67,1.89,1.16c0.53,0.49,0.79,1.06,0.79,1.71c0,0.49,0,0.87,0,1.16c0,0.29-0.05,0.61-0.15,0.98
			c-0.1,0.37-0.24,0.83-0.43,1.4C90.88,228.6,90.61,229.41,90.24,230.47z"/>
		<path class="st9" d="M108.3,223.88c0.77,0,1.43,0.33,1.98,0.98c0.55,0.65,1.01,1.42,1.37,2.32c0.37,0.89,0.63,1.8,0.79,2.71
			c0.16,0.91,0.24,1.64,0.24,2.17c0,0.37-0.05,0.7-0.15,1.01c-0.1,0.3-0.38,0.46-0.82,0.46c-0.2,0-0.34-0.09-0.4-0.27
			s-0.24-0.39-0.55-0.61c-0.3-0.22-0.85-0.43-1.65-0.61c-0.79-0.18-2.02-0.28-3.69-0.28H105c-0.77,2.52-1.6,5.25-2.47,8.17
			c-0.88,2.93-1.69,5.72-2.44,8.39c-0.75,2.66-1.38,5.03-1.89,7.11c-0.51,2.07-0.76,3.54-0.76,4.39c0,0.73,0.09,1.25,0.27,1.56
			c0.18,0.3,0.46,0.46,0.82,0.46c0.57,0,1.34-0.45,2.32-1.34c0.98-0.89,1.98-1.88,3.02-2.96c1.04-1.08,2.02-2.06,2.96-2.96
			c0.94-0.89,1.67-1.34,2.2-1.34c0.24,0,0.52,0.05,0.82,0.15c0.31,0.1,0.46,0.25,0.46,0.46c0,0.29-0.21,0.91-0.64,1.86
			c-0.43,0.96-1.02,2.05-1.77,3.29c-0.75,1.24-1.64,2.54-2.65,3.9c-1.02,1.36-2.11,2.61-3.29,3.75c-1.18,1.14-2.4,2.08-3.66,2.84
			c-1.26,0.75-2.5,1.13-3.72,1.13c-4.43,0-6.65-1.87-6.65-5.61c0-1.95,0.22-4.26,0.67-6.92c0.45-2.66,1.02-5.47,1.71-8.42
			c0.69-2.95,1.44-5.93,2.26-8.94c0.81-3.01,1.59-5.81,2.32-8.42h-1.71c-0.81,0-1.33-0.36-1.56-1.07c-0.22-0.71-0.23-1.5-0.03-2.38
			c0.2-0.88,0.56-1.67,1.07-2.38c0.51-0.71,1.11-1.07,1.8-1.07c0.28,0,0.63-0.01,1.04-0.03c0.41-0.02,0.85-0.05,1.34-0.09
			c0.41-1.55,0.73-2.87,0.98-3.97c0.24-1.1,0.37-1.93,0.37-2.5c0-0.61,0.17-1.05,0.52-1.31c0.34-0.26,0.74-0.4,1.19-0.4
			c0.53,0,1.24,0.09,2.13,0.27c0.89,0.18,1.78,0.44,2.65,0.76c0.87,0.33,1.63,0.73,2.26,1.22c0.63,0.49,0.95,1.06,0.95,1.71
			c0,0.2-0.05,0.56-0.15,1.07c-0.1,0.51-0.25,1.11-0.46,1.8c0.2-0.04,0.41-0.06,0.61-0.06C108.07,223.88,108.22,223.88,108.3,223.88
			z"/>
		<path class="st9" d="M127.39,235.47c0.81,0,1.46,0.14,1.95,0.43c0.49,0.29,0.89,0.61,1.22,0.98c0.81-0.41,1.52-0.61,2.13-0.61
			c0.37,0,0.82,0.03,1.37,0.09c0.55,0.06,1.09,0.21,1.62,0.43c0.53,0.23,0.98,0.54,1.34,0.95c0.37,0.41,0.55,0.94,0.55,1.59
			c0,0.82-0.2,1.93-0.61,3.33c-0.41,1.41-0.91,2.92-1.49,4.55c-0.59,1.63-1.21,3.27-1.86,4.92c-0.65,1.65-1.22,3.15-1.71,4.49
			c-0.49,1.35-0.83,2.45-1.04,3.3c-0.2,0.86-0.16,1.28,0.12,1.28c0.57,0,1.33-0.45,2.29-1.34c0.96-0.89,1.95-1.87,2.99-2.93
			c1.04-1.06,2.01-2.03,2.93-2.93s1.64-1.34,2.17-1.34c0.2,0,0.47,0.05,0.79,0.15c0.33,0.1,0.49,0.25,0.49,0.46
			c0,0.29-0.21,0.91-0.64,1.86c-0.43,0.96-1.02,2.05-1.77,3.29c-0.75,1.24-1.64,2.54-2.65,3.89c-1.02,1.36-2.12,2.6-3.29,3.73
			c-1.18,1.13-2.4,2.07-3.66,2.82c-1.26,0.75-2.5,1.12-3.72,1.12c-1.46,0-2.62-0.37-3.48-1.09c-0.85-0.73-1.28-1.92-1.28-3.57
			c0-0.85,0.12-1.82,0.37-2.91c-1.46,1.86-3.07,3.4-4.82,4.63c-1.75,1.23-3.68,1.84-5.79,1.84c-2.07,0-3.71-0.48-4.91-1.43
			c-1.2-0.96-2-2.22-2.41-3.78c-0.41-1.56-0.47-3.35-0.18-5.37c0.29-2.01,0.86-4.06,1.74-6.13s2.02-4.12,3.45-6.13
			c1.42-2.01,3.05-3.8,4.88-5.37s3.84-2.83,6.04-3.78C122.69,235.95,124.99,235.47,127.39,235.47z M113.97,261.27
			c0.53,0,1.27-0.46,2.23-1.38c0.96-0.92,1.98-2.08,3.08-3.49c1.1-1.41,2.21-2.96,3.32-4.65c1.12-1.69,2.13-3.33,3.05-4.93
			c0.92-1.59,1.66-3.03,2.23-4.31c0.57-1.29,0.85-2.21,0.85-2.78v-0.12c-0.33-0.08-0.63-0.12-0.92-0.12c-1.22,0-2.48,0.54-3.78,1.62
			c-1.3,1.08-2.56,2.43-3.78,4.04c-1.22,1.61-2.35,3.35-3.39,5.23c-1.04,1.88-1.86,3.62-2.47,5.23c-0.61,1.61-0.98,2.96-1.1,4.04
			C113.18,260.73,113.4,261.27,113.97,261.27z"/>
		<path class="st9" d="M158.32,252.43c0.2,0,0.47,0.05,0.79,0.15c0.33,0.1,0.49,0.25,0.49,0.46c0,0.29-0.21,0.91-0.64,1.86
			c-0.43,0.96-1.02,2.05-1.77,3.29c-0.75,1.24-1.64,2.54-2.65,3.9c-1.02,1.36-2.12,2.61-3.29,3.75c-1.18,1.14-2.4,2.08-3.66,2.84
			c-1.26,0.75-2.5,1.13-3.72,1.13c-0.85,0-1.68-0.14-2.47-0.43c-0.79-0.29-1.51-0.69-2.14-1.22c-0.63-0.53-1.13-1.19-1.49-1.98
			c-0.37-0.79-0.55-1.7-0.55-2.71c0-2.07,0.21-4.5,0.64-7.29c0.43-2.79,0.96-5.69,1.59-8.72c0.63-3.03,1.31-6.07,2.04-9.12
			c0.73-3.05,1.41-5.89,2.04-8.51c0.63-2.62,1.16-4.9,1.59-6.83c0.43-1.93,0.64-3.32,0.64-4.18c0-0.61,0.18-1.05,0.55-1.31
			c0.37-0.26,0.77-0.4,1.22-0.4c0.53,0,1.23,0.09,2.1,0.27c0.87,0.18,1.73,0.44,2.56,0.76c0.83,0.33,1.56,0.73,2.17,1.22
			c0.61,0.49,0.92,1.06,0.92,1.71c0,0.37-0.12,1.13-0.37,2.29c-0.24,1.16-0.56,2.57-0.95,4.24c-0.39,1.67-0.83,3.53-1.34,5.58
			c-0.51,2.05-1.04,4.17-1.59,6.34c-0.55,2.18-1.08,4.33-1.59,6.47c-0.51,2.13-0.96,4.12-1.34,5.95c-0.39,1.83-0.7,3.45-0.95,4.85
			c-0.24,1.4-0.37,2.45-0.37,3.14c0,0.57,0.08,0.9,0.24,0.98c0.16,0.08,0.41,0.12,0.73,0.12c0.57,0,1.34-0.45,2.32-1.34
			c0.98-0.89,1.98-1.88,3.02-2.96s2.03-2.06,2.99-2.96C157.04,252.88,157.79,252.43,158.32,252.43z"/>
		<path class="st9" d="M153.44,263.78c0-1.75,0.3-3.81,0.88-6.19c0.59-2.38,1.25-4.78,1.98-7.2c0.73-2.42,1.39-4.71,1.98-6.86
			c0.59-2.15,0.88-3.86,0.88-5.12c0-0.61,0.17-1.14,0.52-1.59c0.35-0.45,0.88-0.67,1.62-0.67c0.61,0,1.33,0.07,2.17,0.21
			c0.83,0.14,1.62,0.37,2.35,0.67s1.36,0.69,1.89,1.16c0.53,0.47,0.79,1.05,0.79,1.74c0,0.81-0.19,1.91-0.58,3.29
			c-0.39,1.38-0.84,2.86-1.37,4.42c-0.53,1.57-1.09,3.15-1.68,4.76c-0.59,1.61-1.1,3.07-1.52,4.39c-0.43,1.32-0.72,2.39-0.88,3.2
			c-0.16,0.81-0.08,1.22,0.24,1.22c0.57,0,1.32-0.45,2.26-1.34c0.94-0.89,1.91-1.88,2.93-2.96c1.02-1.08,1.98-2.06,2.9-2.96
			s1.64-1.34,2.17-1.34c0.2,0,0.47,0.05,0.79,0.15c0.33,0.1,0.49,0.25,0.49,0.46c0,0.29-0.21,0.91-0.64,1.86
			c-0.43,0.96-1.02,2.05-1.77,3.29c-0.75,1.24-1.64,2.54-2.65,3.9c-1.02,1.36-2.11,2.61-3.29,3.75c-1.18,1.14-2.39,2.08-3.63,2.84
			c-1.24,0.75-2.49,1.13-3.75,1.13c-1.5,0-2.73-0.49-3.66-1.46C153.9,267.56,153.44,265.97,153.44,263.78z M171.37,230.47
			c-0.57,1.67-1.43,2.81-2.59,3.42c-1.16,0.61-2.29,0.82-3.39,0.64c-1.1-0.18-1.98-0.69-2.65-1.52c-0.67-0.83-0.82-1.9-0.46-3.2
			c0.33-1.14,0.57-2.02,0.73-2.65c0.16-0.63,0.27-1.15,0.34-1.55s0.09-0.79,0.09-1.16c0-0.37,0-0.83,0-1.4
			c0-0.65,0.17-1.19,0.52-1.62c0.35-0.43,0.88-0.64,1.62-0.64c0.61,0,1.33,0.07,2.17,0.21c0.83,0.14,1.62,0.36,2.35,0.64
			c0.73,0.29,1.36,0.67,1.89,1.16c0.53,0.49,0.79,1.06,0.79,1.71c0,0.49,0,0.87,0,1.16c0,0.29-0.05,0.61-0.15,0.98
			c-0.1,0.37-0.24,0.83-0.43,1.4C172.01,228.6,171.74,229.41,171.37,230.47z"/>
		<path class="st9" d="M204.49,237.85c0,0.57-0.09,1.57-0.27,2.99s-0.45,3.13-0.79,5.12c-0.35,1.99-0.75,4.21-1.22,6.65
			c-0.47,2.44-1.01,4.96-1.62,7.56c1.14-0.93,2.21-1.9,3.2-2.9c1-1,1.9-2.08,2.71-3.26c0.28-0.45,0.7-0.77,1.25-0.98
			c0.55-0.2,1.01-0.18,1.37,0.06c0.33,0.2,0.5,0.6,0.52,1.19c0.02,0.59-0.05,1.09-0.21,1.5c-0.81,2.2-2.22,4.31-4.21,6.34
			c-1.99,2.03-4.19,3.92-6.59,5.67c-0.81,2.93-1.67,5.73-2.56,8.42c-0.9,2.68-1.83,5.06-2.81,7.14c-0.98,2.07-1.98,3.72-3.02,4.94
			c-1.04,1.22-2.08,1.83-3.14,1.83c-1.71,0-3.31-0.22-4.82-0.67c-1.5-0.45-2.82-1.07-3.93-1.86c-1.12-0.79-1.99-1.76-2.62-2.9
			c-0.63-1.14-0.95-2.4-0.95-3.78c0-1.26,0.41-2.46,1.22-3.6c0.81-1.14,1.9-2.25,3.26-3.32c1.36-1.08,2.94-2.15,4.73-3.2
			c1.79-1.06,3.66-2.16,5.61-3.29c0.57-2.32,1.12-4.59,1.65-6.83c0.53-2.24,0.98-4.23,1.34-5.98c-0.77,1.55-1.72,3.2-2.84,4.97
			c-1.12,1.77-2.38,3.43-3.78,4.97c-1.4,1.55-2.94,2.83-4.61,3.84c-1.67,1.02-3.44,1.53-5.31,1.53c-1.3,0-2.39-0.19-3.26-0.58
			c-0.88-0.39-1.58-0.96-2.1-1.71c-0.53-0.75-0.89-1.67-1.1-2.75c-0.2-1.08-0.3-2.29-0.3-3.63c0-1.38,0.25-2.98,0.76-4.79
			c0.51-1.81,1.24-3.67,2.2-5.58c0.95-1.91,2.12-3.79,3.51-5.64c1.38-1.85,2.95-3.5,4.7-4.94c1.75-1.44,3.67-2.61,5.76-3.51
			c2.09-0.89,4.32-1.34,6.68-1.34c0.53,0,0.99,0.06,1.37,0.18c0.39,0.12,0.74,0.29,1.07,0.49c0.2-0.49,0.36-0.87,0.46-1.16
			c0.1-0.29,0.15-0.47,0.15-0.55c0-0.65,0.45-0.97,1.34-0.95c0.89,0.02,1.87,0.24,2.93,0.64c1.06,0.41,2.03,0.96,2.93,1.65
			C204.04,236.53,204.49,237.2,204.49,237.85z M193.33,239.5c-0.94,0-2.04,0.57-3.32,1.71c-1.28,1.14-2.58,2.56-3.9,4.27
			c-1.32,1.71-2.57,3.56-3.75,5.55c-1.18,1.99-2.13,3.84-2.87,5.55c-0.73,1.71-1.13,3.13-1.19,4.27s0.36,1.71,1.25,1.71
			c0.65,0,1.38-0.38,2.2-1.13c0.81-0.75,1.67-1.76,2.56-3.02c0.89-1.26,1.79-2.69,2.68-4.3c0.89-1.61,1.77-3.26,2.62-4.97
			c0.85-1.71,1.66-3.39,2.41-5.06c0.75-1.67,1.41-3.17,1.98-4.51c-0.12,0-0.23-0.01-0.34-0.03
			C193.56,239.51,193.45,239.5,193.33,239.5z M181.49,280.31c0,0.45,0.23,0.92,0.7,1.4c0.47,0.49,0.99,0.73,1.56,0.73
			c0.53,0,1.1-0.66,1.71-1.98c0.61-1.32,1.26-3.02,1.95-5.09c-1.75,1.14-3.17,2.11-4.27,2.93S181.49,279.78,181.49,280.31z"/>
		<path class="st9" d="M232.55,237.06c1.34,0,2.32,0.35,2.93,1.04c0.61,0.69,0.96,1.6,1.04,2.71c0.08,1.12-0.04,2.4-0.37,3.84
			c-0.33,1.44-0.74,2.91-1.25,4.39c-0.51,1.49-1.05,2.95-1.62,4.39c-0.57,1.44-1.08,2.73-1.52,3.84c-0.45,1.12-0.76,2.02-0.95,2.71
			c-0.18,0.69-0.13,1.04,0.15,1.04c0.57,0,1.3-0.44,2.2-1.31c0.89-0.87,1.8-1.85,2.71-2.93c0.92-1.08,1.8-2.05,2.65-2.93
			c0.85-0.88,1.54-1.31,2.07-1.31c0.24,0,0.55,0.06,0.92,0.18s0.55,0.29,0.55,0.49c0,0.29-0.2,0.89-0.61,1.83s-0.97,2.02-1.68,3.26
			c-0.71,1.24-1.55,2.54-2.5,3.9c-0.96,1.36-1.99,2.61-3.11,3.75c-1.12,1.14-2.29,2.08-3.51,2.84c-1.22,0.75-2.44,1.13-3.66,1.13
			c-1.5,0-2.68-0.37-3.54-1.1c-0.85-0.73-1.32-1.93-1.4-3.6c-0.08-1.26,0.01-2.64,0.27-4.15c0.26-1.5,0.6-3.01,1.01-4.51
			c0.41-1.5,0.84-2.95,1.31-4.33c0.47-1.38,0.86-2.6,1.19-3.66c0.32-1.06,0.56-1.91,0.7-2.56c0.14-0.65,0.09-0.98-0.15-0.98
			c-0.57,0-1.27,0.41-2.1,1.22c-0.83,0.81-1.72,1.87-2.65,3.17c-0.94,1.3-1.88,2.77-2.84,4.39c-0.96,1.63-1.81,3.27-2.56,4.94
			c-0.75,1.67-1.36,3.25-1.83,4.76c-0.47,1.51-0.7,2.79-0.7,3.84c0,0.69,0.11,1.19,0.34,1.49c0.22,0.3,0.33,0.54,0.33,0.7
			c0,0.24-0.1,0.47-0.3,0.67c-0.2,0.2-0.47,0.3-0.79,0.3c-0.2,0-0.76-0.14-1.68-0.43c-0.92-0.29-1.89-0.68-2.93-1.19
			c-1.04-0.51-1.97-1.11-2.81-1.8c-0.83-0.69-1.27-1.44-1.31-2.26c-0.04-0.85,0.08-2.21,0.37-4.06c0.29-1.85,0.69-3.91,1.22-6.19
			c0.53-2.28,1.15-4.62,1.86-7.01c0.71-2.4,1.44-4.59,2.2-6.59c0.75-1.99,1.51-3.63,2.29-4.91c0.77-1.28,1.48-1.92,2.13-1.92
			c0.53,0,1.22,0.06,2.07,0.18c0.85,0.12,1.69,0.33,2.5,0.61c0.81,0.29,1.51,0.64,2.1,1.07c0.59,0.43,0.9,0.97,0.95,1.62
			c0,0.2-0.12,0.61-0.37,1.22s-0.55,1.36-0.92,2.26c-0.37,0.89-0.77,1.87-1.22,2.93c-0.45,1.06-0.88,2.12-1.28,3.17
			c0.89-1.18,1.88-2.38,2.96-3.6s2.22-2.32,3.42-3.29c1.2-0.98,2.45-1.77,3.75-2.38C229.89,237.36,231.21,237.06,232.55,237.06z"/>
	</g>
	<g>
		<path class="st10" d="M44.43,283.75v-1.26c0-0.57-0.28-0.86-0.84-0.86h-0.3c-0.55,0-0.82,0.29-0.82,0.86v2.38
			c0,0.27,0.05,0.45,0.16,0.54c0.11,0.09,0.28,0.21,0.52,0.36l1.82,0.98c0.4,0.23,0.68,0.4,0.85,0.53c0.17,0.13,0.3,0.28,0.39,0.46
			c0.09,0.18,0.14,0.52,0.14,1.03v3.06c0,1.61-0.77,2.42-2.32,2.42h-1.18c-1.53,0-2.3-0.88-2.3-2.64v-0.72h1.92v0.78
			c0,0.56,0.29,0.84,0.86,0.84h0.34c0.51,0,0.76-0.28,0.76-0.84v-2.44c0-0.27-0.05-0.45-0.16-0.54c-0.11-0.09-0.28-0.21-0.52-0.36
			l-1.82-1.02c-0.4-0.21-0.69-0.39-0.87-0.54c-0.18-0.15-0.31-0.34-0.39-0.57c-0.08-0.23-0.12-0.54-0.12-0.91v-2.94
			c0-1.64,0.77-2.46,2.3-2.46h1.2c1.53,0,2.3,0.82,2.3,2.46v1.4H44.43z"/>
		<path class="st10" d="M52.95,279.89h3.5c1.55,0,2.32,0.82,2.32,2.46v4.26c0,1.63-0.77,2.44-2.3,2.44h-1.6v5.2h-1.92V279.89z
			 M54.87,287.31h1.22c0.51,0,0.76-0.28,0.76-0.84v-4c0-0.56-0.29-0.84-0.86-0.84h-1.12V287.31z"/>
		<path class="st10" d="M65.29,294.25v-14.36h1.92v14.36H65.29z"/>
		<path class="st10" d="M77.99,286.83v-6.94h1.92v14.36h-1.92v-2.86l-2.06-6.54v9.4h-1.92v-14.36h1.92L77.99,286.83z"/>
		<path class="st10" d="M86.71,294.25v-14.36h4.76v1.74h-2.84v4.36h2.52v1.74h-2.52v4.78h2.84v1.74H86.71z"/>
		<path class="st10" d="M111.79,290.89v0.92c0,1.63-0.77,2.44-2.3,2.44h-1.24c-1.53,0-2.3-0.81-2.3-2.44v-9.48
			c0-1.63,0.77-2.44,2.3-2.44h1.24c1.53,0,2.3,0.81,2.3,2.44v1.62h-1.92v-1.48c0-0.56-0.29-0.84-0.86-0.84h-0.38
			c-0.51,0-0.76,0.28-0.76,0.84v9.2c0,0.56,0.25,0.84,0.76,0.84h0.48c0.51,0,0.76-0.28,0.76-0.84v-0.78H111.79z"/>
		<path class="st10" d="M122.85,294.25h-4.56v-14.36h1.92v12.62h2.64V294.25z"/>
		<path class="st10" d="M128.95,294.25v-14.36h1.92v14.36H128.95z"/>
		<path class="st10" d="M141.64,286.83v-6.94h1.92v14.36h-1.92v-2.86l-2.06-6.54v9.4h-1.92v-14.36h1.92L141.64,286.83z"/>
		<path class="st10" d="M150.36,294.25v-14.36h1.92v14.36H150.36z"/>
		<path class="st10" d="M164.82,290.89v0.92c0,1.63-0.77,2.44-2.3,2.44h-1.24c-1.53,0-2.3-0.81-2.3-2.44v-9.48
			c0-1.63,0.77-2.44,2.3-2.44h1.24c1.53,0,2.3,0.81,2.3,2.44v1.62h-1.92v-1.48c0-0.56-0.29-0.84-0.86-0.84h-0.38
			c-0.51,0-0.76,0.28-0.76,0.84v9.2c0,0.56,0.25,0.84,0.76,0.84h0.48c0.51,0,0.76-0.28,0.76-0.84v-0.78H164.82z"/>
	</g>
</g>
</svg>
